<?xml version="1.0" encoding="UTF-8"?>
<svg version="1.1" xmlns="http://www.w3.org/2000/svg" width="3464" height="2137">
<path d="M0 0 C326.37 0 652.74 0 989 0 C989 90.42 989 180.84 989 274 C988 275 988 275 986.24430674 275.12467116 C985.47079882 275.12451518 984.69729091 275.1243592 983.90034336 275.1241985 C982.56389442 275.12756944 982.56389442 275.12756944 981.20044652 275.13100848 C980.20837936 275.12838146 979.2163122 275.12575445 978.1941824 275.12304783 C977.14623687 275.12420167 976.09829134 275.12535552 975.01858988 275.12654433 C971.45976044 275.12921949 967.90097504 275.12468148 964.34214783 275.12025452 C961.78390844 275.12069004 959.22566909 275.12156458 956.66742998 275.12284368 C951.0809624 275.12492322 945.49450544 275.1232638 939.90803909 275.11920547 C931.60107867 275.11318753 923.29412499 275.11286808 914.98716278 275.11374746 C901.01570575 275.11506355 887.04425343 275.11171167 873.07279778 275.10573006 C859.23262445 275.09981979 845.39245309 275.09596548 831.55227852 275.09487724 C830.69281225 275.0948085 829.83334599 275.09473976 828.94783529 275.09466894 C824.58331641 275.09433062 820.21879752 275.09402923 815.85427863 275.09374207 C784.91351189 275.09163979 753.97274772 275.08489723 723.03198242 275.07543945 C692.96720392 275.06626003 662.90242611 275.05917397 632.83764648 275.05493164 C631.91146335 275.05480011 630.98528021 275.05466859 630.03103091 275.05453308 C620.73020258 275.05321459 611.42937425 275.05193877 602.12854591 275.05069422 C583.18046958 275.04815778 564.23239329 275.04533652 545.28431702 275.04234314 C544.41305117 275.04220585 543.54178533 275.04206856 542.64411749 275.04192711 C515.93046421 275.03770271 489.21681136 275.03227075 462.50315857 275.02565002 C461.74449777 275.02546247 460.98583696 275.02527491 460.20418644 275.02508167 C429.46945743 275.01746507 398.73472876 275.00857204 368 275 C368 326.48 368 377.96 368 431 C543.23 431 718.46 431 899 431 C899 518.12 899 605.24 899 695 C723.77 695 548.54 695 368 695 C368 752.09 368 809.18 368 868 C576.56 868 785.12 868 1000 868 C1000 958.75 1000 1049.5 1000 1143 C670 1143 340 1143 0 1143 C0 765.81 0 388.62 0 0 Z " fill="#C6FF00" transform="translate(141,29)"/>
<path d="M0 0 C1.25055176 0.19851563 2.50110352 0.39703125 3.78955078 0.6015625 C88.9687002 14.38645519 171.34715931 46.02700042 237 103 C237.69996094 103.59941406 238.39992188 104.19882812 239.12109375 104.81640625 C256.30785635 119.64490205 256.30785635 119.64490205 263.14453125 127.83203125 C265.09547327 130.11155298 267.13781346 132.29181585 269.19677734 134.47363281 C275.93907666 141.64196236 282.09697482 149.12996072 288 157 C288.77561279 158.03084717 288.77561279 158.03084717 289.56689453 159.08251953 C297.73655561 170.00241217 305.10282048 181.24063597 312 193 C312.4832373 193.81307617 312.96647461 194.62615234 313.46435547 195.46386719 C355.34340347 266.02999493 371.83013806 346.39140734 374.5625 427.625 C374.60640869 428.91124268 374.65031738 430.19748535 374.69555664 431.52270508 C375.83752698 467.70355523 374.13954984 504.16050119 369 540 C368.72349609 541.93649414 368.72349609 541.93649414 368.44140625 543.91210938 C358.26071545 613.17591264 334.00919307 681.49268475 292 738 C291.27554688 738.99902344 290.55109375 739.99804688 289.8046875 741.02734375 C284.38704163 748.4159253 278.54645962 755.38171853 272.51171875 762.26733398 C271.49581901 763.4317139 270.48808744 764.60326646 269.48828125 765.78149414 C264.53326012 771.57155573 259.20800972 776.97813139 253.82226562 782.36303711 C252.26139673 783.92608734 250.70872112 785.49697365 249.15625 787.06835938 C242.76373806 793.49708126 236.132573 799.38597925 229 805 C227.61025047 806.12577564 226.22089504 807.25203805 224.83203125 808.37890625 C206.39913469 823.07334472 186.67760111 835.71611264 166 847 C165.21351074 847.43505859 164.42702148 847.87011719 163.61669922 848.31835938 C114.66016847 875.3359063 58.9949458 891.04363238 4 900 C2.36708008 900.26804443 2.36708008 900.26804443 0.70117188 900.54150391 C-37.95768453 906.7944779 -76.78125674 909.37643004 -115.90014648 909.26074219 C-119.78731752 909.24933868 -123.67421477 909.25615129 -127.56137657 909.26762009 C-147.79222773 909.31819004 -167.82862746 908.64189324 -188 907 C-189.40489182 906.88658264 -189.40489182 906.88658264 -190.83816528 906.77087402 C-196.14979138 906.33116967 -201.45076005 905.81900442 -206.75 905.25 C-207.91079071 905.12744339 -207.91079071 905.12744339 -209.09503174 905.00241089 C-226.54061965 903.13812963 -243.7676168 900.26406028 -261 897 C-262.08845215 896.79793945 -263.1769043 896.59587891 -264.29833984 896.38769531 C-303.29057703 889.07625758 -341.82740561 877.32012935 -378 861 C-379.00643555 860.54689453 -380.01287109 860.09378906 -381.04980469 859.62695312 C-415.65502957 843.88454505 -447.76854688 823.32394315 -476.44165039 798.35351562 C-477.53090903 797.4074323 -478.62704719 796.46923764 -479.72827148 795.53710938 C-485.53685329 790.56665605 -490.96113066 785.2250131 -496.36303711 779.82226562 C-497.92608734 778.26139673 -499.49697365 776.70872112 -501.06835938 775.15625 C-507.49667248 768.76433659 -513.39440773 762.13871666 -519 755 C-519.91422729 753.85869629 -519.91422729 753.85869629 -520.84692383 752.69433594 C-528.7658766 742.79536767 -536.20888208 732.70459156 -543 722 C-543.6496875 720.98292969 -544.299375 719.96585938 -544.96875 718.91796875 C-547.02370133 715.63762636 -549.02566009 712.32918031 -551 709 C-551.44601563 708.25008789 -551.89203125 707.50017578 -552.3515625 706.72753906 C-590.96429065 641.4524124 -608.38930155 567.15312837 -613 492 C-613.05784668 491.06446289 -613.11569336 490.12892578 -613.17529297 489.16503906 C-618.730902 394.1756645 -606.04754965 296.14125398 -546 183 C-545.57541504 182.31679688 -545.15083008 181.63359375 -544.71337891 180.9296875 C-532.27823206 161.15551534 -517.50728511 141.94558561 -500.69140625 125.69140625 C-499.01376233 124.01376233 -497.50832804 122.26760469 -496 120.4375 C-493.35211349 117.28693985 -490.44687669 114.65947113 -487.3125 112 C-485.1149169 110.09938759 -482.98963135 108.13505427 -480.87060547 106.14770508 C-474.48786565 100.18277111 -467.80783685 94.71900025 -460.86376953 89.42236328 C-459.604036 88.46097901 -458.34726732 87.49569923 -457.09326172 86.52685547 C-400.70532858 42.96274411 -332.35302726 17.8258702 -263 4 C-262.28350281 3.85691406 -261.56700562 3.71382813 -260.82879639 3.56640625 C-175.69905221 -13.32635709 -85.62035567 -13.68048794 0 0 Z M-156 219 C-157.27101563 219.17144531 -158.54203125 219.34289062 -159.8515625 219.51953125 C-193.87200722 224.88935705 -226.8163131 242.05633753 -247.59399414 269.93237305 C-278.71268203 313.22858607 -283.15300787 365.68602091 -283.16796875 417.36328125 C-283.17037417 419.33643945 -283.17278214 421.30959766 -283.17542917 423.28275555 C-283.18351303 429.47797637 -283.18601922 435.67318271 -283.18530273 441.8684082 C-283.18470507 448.17288709 -283.19520878 454.47727957 -283.2110464 460.78173667 C-283.2243122 466.26612746 -283.22947875 471.7504907 -283.22884732 477.23489732 C-283.2285976 480.47838822 -283.23213388 483.72178726 -283.24202538 486.96526527 C-283.39419556 542.03385689 -277.48803997 602.58767684 -237.0234375 644.0390625 C-205.30581894 675.51222927 -161.2789469 684.27358027 -118.02978516 684.18115234 C-75.5054039 683.71780326 -32.1876321 673.61522161 -1.46679688 642.44433594 C44.81782588 593.13844238 44.38201149 521.38483982 44.26074219 458.25610352 C44.24935512 452.26843994 44.25611971 446.2809543 44.26762009 440.29329681 C45.07038197 369.02022166 45.07038197 369.02022166 26 301 C25.70367676 300.3498291 25.40735352 299.6996582 25.10205078 299.02978516 C9.63776114 265.51179916 -16.74930865 240.51473629 -51.31005859 227.515625 C-73.56119998 219.50786973 -96.50208652 216.77922021 -120.0625 216.8125 C-120.78855438 216.81277191 -121.51460876 216.81304382 -122.26266479 216.81332397 C-133.61854851 216.83284144 -144.76328208 217.28381657 -156 219 Z " fill="#C6FF00" transform="translate(3003,283)"/>
<path d="M0 0 C0.81903809 0.27134766 1.63807617 0.54269531 2.48193359 0.82226562 C53.84128276 17.8573476 102.44042484 44.16239172 142.5234375 80.74609375 C144.20252205 82.2742196 145.89580823 83.78685858 147.6015625 85.28515625 C152.09157119 89.23934819 156.26188854 93.22610876 160.11328125 97.8046875 C162.36926427 100.42966153 164.74887561 102.92079682 167.125 105.4375 C216.06099392 158.39528391 239.85669184 227.75619074 246.75 298.4375 C246.94190918 300.32625854 246.94190918 300.32625854 247.13769531 302.25317383 C248.30545104 315.28187378 248 327.74329108 248 341 C142.07 341 36.14 341 -73 341 C-73.99 329.78 -74.98 318.56 -76 307 C-81.58034892 273.70391813 -94.61819362 242.83421068 -122.75 222.4375 C-145.38879101 207.15631607 -170.17403328 199.22456169 -197 195 C-197.72316406 194.88140625 -198.44632813 194.7628125 -199.19140625 194.640625 C-244.66494241 187.50085484 -297.75768849 192.80030123 -336 220 C-355.70995619 234.73961941 -368.86438783 252.71024274 -379 275 C-379.46921875 276.01191406 -379.9384375 277.02382813 -380.421875 278.06640625 C-393.20153477 307.05730111 -397.15751156 340.94849956 -397.14526367 372.31982422 C-397.14862228 373.58200272 -397.1519809 374.84418121 -397.15544128 376.14460754 C-397.16417654 379.56883152 -397.16661506 382.99303042 -397.16725707 386.41726446 C-397.16797413 388.57085388 -397.17012078 390.72443718 -397.17275429 392.87802505 C-397.1819766 400.43235926 -397.18609353 407.98667597 -397.18530273 415.54101562 C-397.18470439 422.51465487 -397.19521642 429.48821617 -397.2110464 436.46183574 C-397.22425539 442.50232606 -397.22948104 448.54279135 -397.22884732 454.58329594 C-397.22859601 458.16705842 -397.23123842 461.75075164 -397.24202538 465.33449936 C-397.38921591 517.99368353 -389.55364619 569.61962887 -356 612 C-355.45988281 612.70769531 -354.91976563 613.41539062 -354.36328125 614.14453125 C-342.35599989 628.99484648 -323.54951579 639.3163314 -306 646 C-304.84242188 646.44085937 -303.68484375 646.88171875 -302.4921875 647.3359375 C-248.92452927 666.42592369 -181.26186325 661.80721228 -129.8359375 638.5703125 C-118.58930722 633.19401637 -108.44401814 626.10866294 -99 618 C-98.33613281 617.4328125 -97.67226562 616.865625 -96.98828125 616.28125 C-66.74317361 588.30605916 -62.74588606 544.44240482 -60 506 C41.64 506 143.28 506 248 506 C248 535.27251696 248 535.27251696 246.75 548 C246.6830896 548.71224731 246.6161792 549.42449463 246.54724121 550.1583252 C242.65885396 591.39527567 233.52769029 632.7311498 215 670 C214.55962402 670.89702637 214.11924805 671.79405273 213.66552734 672.71826172 C203.98244859 692.31007706 192.84350166 711.04877348 179 728 C178.24203125 728.94875 177.4840625 729.8975 176.703125 730.875 C171.67701525 737.11430865 166.40358836 743.08731323 161 749 C160.16855469 749.93585937 159.33710938 750.87171875 158.48046875 751.8359375 C97.84808091 819.48144194 6.75658899 853.51386858 -187.40932083 883.45458698 C-202.44902817 884.26430199 -217.48762011 884.35466033 -232.54583359 884.31805801 C-234.92342954 884.31238443 -237.30101827 884.30958476 -239.67861938 884.30697632 C-326.53257162 884.16875286 -415.58664928 871.91565905 -495 835 C-495.99515625 834.54544434 -496.9903125 834.09088867 -498.015625 833.62255859 C-532.33706525 817.91166061 -563.43713442 797.61268204 -592 773 C-593.1446875 772.02546875 -593.1446875 772.02546875 -594.3125 771.03125 C-599.10885537 766.9093821 -603.56978603 762.50979866 -608 758 C-610.65398219 755.33276998 -613.32226604 752.68204319 -616.015625 750.0546875 C-622.83617617 743.37258209 -629.11717585 736.53647746 -635 729 C-636.04450701 727.70617002 -637.09016584 726.41326941 -638.13671875 725.12109375 C-700.34624238 647.61182122 -726.42718392 546.73688549 -727 366 C-726.89816406 364.81374023 -726.79632812 363.62748047 -726.69140625 362.40527344 C-718.92192936 274.75885978 -689.82500595 179.34350222 -628 114 C-626.93157543 112.77597962 -625.86900044 111.54682725 -624.8125 110.3125 C-616.06762701 100.30673835 -607.04853222 90.70872792 -597 82 C-595.41583596 80.54256909 -593.83252455 79.08421095 -592.25 77.625 C-565.51332912 53.62842272 -534.33938634 34.43600225 -502 19 C-501.19111328 18.61344238 -500.38222656 18.22688477 -499.54882812 17.82861328 C-456.06684562 -2.79179264 -409.37167016 -16.05362289 -362 -24 C-360.86127441 -24.19432617 -359.72254883 -24.38865234 -358.54931641 -24.58886719 C-270.51605127 -39.4666318 -176.89112211 -37.66183728 0 0 Z " fill="#C6FF00" transform="translate(2009,308)"/>
<path d="M0 0 C1.25702266 -0.00241442 2.51404532 -0.00482883 3.80915958 -0.00731641 C7.2927226 -0.01372174 10.77616915 -0.00766749 14.2597245 0.00044787 C18.02121654 0.00703404 21.78269575 0.00207364 25.54418945 -0.00143433 C32.9212346 -0.00647879 40.29823493 -0.00082712 47.67527451 0.00841597 C56.30374068 0.01883331 64.9321973 0.01872869 73.56066857 0.01824339 C89.00479529 0.01774233 104.44890137 0.02690597 119.89302063 0.04142761 C134.78788124 0.05542515 149.68272365 0.06260224 164.57759094 0.06193542 C165.94563284 0.06187549 165.94563284 0.06187549 167.34131195 0.06181435 C168.70724684 0.06175381 168.70724684 0.06175381 170.10077637 0.06169206 C187.14129585 0.06099506 204.18180774 0.06694446 221.22232473 0.07584528 C226.35254583 0.07840244 231.48276558 0.07978161 236.61298729 0.08017578 C300.64348084 0.08530405 300.64348084 0.08530405 326.4198761 0.67570496 C327.24065938 0.69372276 328.06144267 0.71174056 328.90709817 0.73030436 C396.98789445 2.292405 465.06275279 13.73835513 527.64717102 41.24723816 C528.4264093 41.58722839 529.20564758 41.92721863 530.00849915 42.2775116 C563.59401628 57.05934108 593.49084797 78.68834228 619.64717102 104.24723816 C620.71065332 105.27100795 621.77442817 106.29447398 622.83857727 107.31755066 C628.94001606 113.27472733 634.36045754 119.56517899 639.64717102 126.24723816 C640.62728618 127.4504117 641.6091537 128.65215922 642.59248352 129.85270691 C653.71268074 143.47911091 662.79550405 158.07429907 671.64717102 173.24723816 C672.01842102 173.87936218 672.38967102 174.51148621 672.77217102 175.1627655 C719.11995495 254.93617291 725.28878407 356.4153218 704.72871399 531.82194519 C694.47497831 570.43375005 679.39828504 608.20298099 656.64717102 641.24723816 C656.05041565 642.11566345 656.05041565 642.11566345 655.44160461 643.00163269 C647.90547837 653.91328485 639.69615961 664.11636446 630.75654602 673.91911316 C628.89041535 675.97876849 627.07647314 678.0711271 625.27217102 680.18473816 C617.46131513 689.1114306 608.92279433 696.87702107 599.64717102 704.24723816 C597.87570172 705.72564312 596.1048741 707.20481729 594.33467102 708.68473816 C581.86248361 718.8381527 568.54577424 727.19804708 554.64717102 735.24723816 C553.83473938 735.72338562 553.02230774 736.19953308 552.18525696 736.69010925 C538.82712097 744.48460046 525.03459864 750.60383778 510.64717102 756.24723816 C509.88388489 756.55000671 509.12059875 756.85277527 508.33418274 757.16471863 C464.97931771 774.29468509 418.59664606 782.74937521 372.33467102 786.93473816 C371.02659485 787.05421814 369.71851868 787.17369812 368.37080383 787.29679871 C345.55336143 789.23855912 322.71303946 789.39984211 299.83038116 789.38142467 C296.49992115 789.37954097 293.16946673 789.38133815 289.83900696 789.38310045 C278.91110565 789.38883173 267.9832256 789.38259004 257.05532742 789.37424803 C253.25697731 789.37156528 249.45862701 789.36973116 245.66027641 789.36791712 C217.67980062 789.35439314 189.69940692 789.31368495 161.71899319 789.25380993 C159.67131528 789.24942918 157.62363728 789.24508869 155.57595921 789.24078846 C129.74120339 789.18649483 103.90663402 789.11190059 78.07207853 788.99551392 C77.13867271 788.99130936 76.20526689 788.9871048 75.24357605 788.98277283 C74.31430005 788.9785733 73.38502405 788.97437378 72.42758816 788.970047 C65.89777734 788.94120863 59.36796735 788.9197445 52.83811951 788.90135193 C44.88815358 788.87877489 36.93831738 788.84560398 28.98845607 788.79873723 C24.93954963 788.77509323 20.89076478 788.75598185 16.84179115 788.74958992 C13.13214752 788.74355036 9.42283808 788.72362529 5.71331871 788.69295478 C3.7481914 788.68015777 1.78298636 788.68173909 -0.18218136 788.68396187 C-11.04029569 788.56923512 -20.98428606 787.29314565 -29.12626648 779.56364441 C-38.86458258 769.35279398 -38.92401954 758.20943007 -38.82279968 744.82902527 C-38.82328628 742.94123084 -38.82552761 741.0534362 -38.82936001 739.1656456 C-38.83475763 733.97107211 -38.81504739 728.77685052 -38.79122257 723.58234 C-38.76967333 717.93075984 -38.7712991 712.27917799 -38.7698822 706.62756348 C-38.76333986 695.42942162 -38.7349571 684.23143156 -38.69970167 673.03334743 C-38.67119459 663.77835658 -38.65181868 654.52338142 -38.63893127 645.26835632 C-38.63752957 644.27196667 -38.63752957 644.27196667 -38.63609954 643.25544794 C-38.63230878 640.5506178 -38.62855765 637.84578761 -38.62486271 635.14095733 C-38.58071301 602.97306617 -38.49416218 570.80533545 -38.39998598 538.63755809 C-38.36545943 526.83641582 -38.33321701 515.03526912 -38.30278015 503.2341156 C-38.30074198 502.44402193 -38.29870382 501.65392826 -38.29660389 500.83989235 C-38.28834693 497.63627065 -38.28010221 494.43264893 -38.27187108 491.22902716 C-38.06706679 411.55584009 -37.80367988 331.88295773 -37.46287726 245.46727746 C-37.38375537 225.46360732 -37.30972615 205.45992625 -37.23954773 185.45622253 C-37.16615096 164.56114645 -37.08616225 143.6661113 -36.99452114 122.77110672 C-36.98535793 120.6783117 -36.9762029 118.58551665 -36.96705627 116.49272156 C-36.96259076 115.47149539 -36.95812524 114.45026922 -36.95352441 113.3980968 C-36.92314807 106.34444442 -36.89753491 99.29078489 -36.87409973 92.23710632 C-36.84641331 83.92030347 -36.81219042 75.60356262 -36.76866639 67.28682685 C-36.74725397 63.16495345 -36.72880431 59.04313013 -36.71903992 54.92121124 C-36.71019238 51.21586349 -36.69234304 47.51067418 -36.66717994 43.80540228 C-36.65626792 41.86054984 -36.65493082 39.91565081 -36.65401554 37.97076797 C-36.55546212 26.19350472 -34.8491142 17.44817533 -26.91532898 8.49723816 C-18.26802621 0.9044845 -11.12791078 -0.04871453 0 0 Z M259.64717102 238.24723816 C258.73058925 255.01118637 258.50492895 271.73212869 258.5311054 288.51875746 C258.53550465 292.07326016 258.5339569 295.62776157 258.53320312 299.18226624 C258.53268377 305.311863 258.53576824 311.44144896 258.54144096 317.57104301 C258.54963691 326.43294081 258.55217939 335.29483348 258.55342896 344.15673465 C258.55560689 358.541479 258.56223254 372.92621762 258.57173157 387.31095886 C258.58093846 401.26798982 258.58800318 415.22501922 258.59223938 429.18205261 C258.5925021 430.04522569 258.59276483 430.90839876 258.59303551 431.79772859 C258.59434074 436.12886872 258.5956044 440.46000887 258.59684741 444.79114902 C258.60718078 480.60984948 258.62476446 516.42854329 258.64717102 552.24723816 C265.05000823 552.26650169 271.45283778 552.27949177 277.85569763 552.28843689 C280.02680236 552.29217218 282.19790525 552.29726221 284.3690033 552.30381775 C322.22931361 552.41514271 360.25520517 551.44967905 389.45967102 523.80973816 C421.12760324 490.1529986 419.02260652 438.54926422 418.96284485 395.60441589 C418.95820005 391.98938093 418.96520405 388.37468136 418.98335266 384.75968933 C419.19269892 342.66186633 418.80940699 296.27035194 387.52998352 264.06755066 C375.711131 252.94137814 361.41340387 246.57293928 345.89717102 242.55973816 C344.73786072 242.25580139 344.73786072 242.25580139 343.55513 241.94572449 C326.08501977 237.67224207 308.60003182 237.99299839 290.7348175 238.10990906 C287.22125174 238.13065927 283.70765587 238.13956404 280.19404602 238.14958191 C273.34501308 238.17079698 266.49610793 238.20560106 259.64717102 238.24723816 Z " fill="#424241" transform="translate(116.35282897949219,1306.7527618408203)"/>
<path d="M0 0 C1.21362717 -0.00186436 2.42725433 -0.00372871 3.67765808 -0.00564957 C7.01418182 -0.00865129 10.35046136 -0.00268756 13.68695617 0.00735211 C17.24526765 0.01598648 20.8035734 0.01329829 24.3618927 0.01219177 C32.01340994 0.01205446 39.66485205 0.02694382 47.31634521 0.0448761 C52.04618024 0.05582461 56.77601652 0.06312389 61.50585938 0.06970215 C80.87382044 0.09744365 100.24161527 0.15027006 119.60946524 0.22085202 C124.22086043 0.23751252 128.83225743 0.2520142 133.44366455 0.26507568 C145.82475182 0.30048819 158.20534192 0.35368534 170.58609009 0.45346069 C174.08738012 0.48139519 177.58855569 0.50094522 181.0899353 0.51309204 C185.1190787 0.5278268 189.14759594 0.56153913 193.17645836 0.61104012 C194.60324584 0.62567594 196.03011749 0.63395923 197.45697975 0.63485527 C207.98128023 0.64781001 217.34820946 1.95163482 225.27270508 9.42651367 C235.98385952 21.60423205 235.16124143 35.92080687 235.09741211 51.20849609 C235.09684714 53.1115722 235.09716622 55.01464875 235.09829712 56.91772461 C235.0988683 62.05537784 235.08715219 67.19293668 235.0731492 72.33056808 C235.06060251 77.71038945 235.05946825 83.09021325 235.05709839 88.470047 C235.05089517 98.64470882 235.03450007 108.81932739 235.01439941 118.99397022 C234.9920043 130.58287421 234.98103791 142.17178032 234.97100854 153.76070058 C234.95013278 177.58813096 234.9149794 201.41552301 234.87036133 225.24291992 C235.45741852 224.9596283 236.04447571 224.67633667 236.64932251 224.38446045 C239.3594971 223.07887748 242.07193732 221.7780674 244.78442383 220.47729492 C246.1689978 219.80899658 246.1689978 219.80899658 247.58154297 219.12719727 C310.88405498 188.82428198 390.29091758 188.96866838 455.99536133 211.49291992 C512.71032474 231.76046356 559.75193131 272.85973716 586.05908203 327.24609375 C586.68120701 328.56052294 587.29892687 329.87704561 587.91235352 331.19555664 C588.92004767 333.34910486 589.96140936 335.48457395 591.00317383 337.62182617 C617.25296632 392.52293891 624.12403486 455.74069281 624.05786133 515.93041992 C624.05695496 517.46753632 624.05695496 517.46753632 624.05603027 519.03570557 C623.92465521 601.64658978 609.61616092 690.44413624 555.87036133 756.24291992 C555.1044165 757.18240479 555.1044165 757.18240479 554.32299805 758.14086914 C544.25924837 770.38493616 533.44780508 781.55511464 520.87036133 791.24291992 C520.34168457 791.65864258 519.81300781 792.07436523 519.26831055 792.50268555 C508.48742271 800.94724521 496.94142513 807.80396155 484.87036133 814.24291992 C484.09208984 814.65815918 483.31381836 815.07339844 482.51196289 815.5012207 C452.98953653 830.9644371 419.83229159 838.09353108 386.87036133 841.24291992 C386.13462891 841.31349609 385.39889648 841.38407227 384.64086914 841.45678711 C380.05490549 841.87090423 375.47206685 842.11494665 370.87036133 842.24291992 C370.08612793 842.26483398 369.30189453 842.28674805 368.49389648 842.30932617 C313.39891215 843.57952754 255.17010024 831.72735479 210.87036133 797.24291992 C209.687435 796.33709974 208.5037963 795.43220937 207.31958008 794.52807617 C204.16041381 792.11172267 201.0128231 789.68095067 197.87036133 787.24291992 C195.72106731 790.93285832 194.93244802 794.875821 193.99536133 798.99291992 C191.51450904 809.21898388 188.36600733 816.50911263 179.87036133 823.24291992 C173.33625436 826.96596609 167.52217419 828.36761023 160.0296936 828.36990356 C159.34194992 828.37146356 158.65420624 828.37302355 157.94562185 828.37463081 C155.64137909 828.37861878 153.33720224 828.37545953 151.03295898 828.37231445 C149.38022829 828.37366959 147.72749789 828.37545016 146.07476807 828.37762451 C141.58246513 828.38218896 137.09018514 828.38041238 132.59788179 828.37724543 C127.88787557 828.37471251 123.1778713 828.37706236 118.46786499 828.37863159 C110.5471766 828.38045235 102.62649752 828.3780513 94.70581055 828.37329102 C85.57650361 828.36786735 76.44721907 828.36959759 67.3179127 828.37511742 C59.46544696 828.37967371 51.61298793 828.38028627 43.76052129 828.37767875 C39.07755313 828.37612736 34.39459543 828.37589043 29.71162796 828.37921524 C25.29738839 828.38212992 20.88317727 828.38005298 16.46894073 828.37432098 C14.85903597 828.37301169 13.24912876 828.37335587 11.63922501 828.37558365 C-21.9560741 828.41774106 -21.9560741 828.41774106 -32.00463867 819.05541992 C-38.32211561 812.28031656 -41.25716579 804.71109789 -41.25260061 795.45875323 C-41.25455791 794.51843899 -41.2565152 793.57812475 -41.25853181 792.60931613 C-41.25556746 791.58406069 -41.2526031 790.55880525 -41.24954891 789.50248146 C-41.25033059 788.40585935 -41.25111226 787.30923724 -41.25191763 786.17938415 C-41.25325781 782.49478549 -41.24736232 778.8102345 -41.24143982 775.12564087 C-41.24075033 772.48730506 -41.24043887 769.84897155 -41.24055922 767.2106359 C-41.23988214 760.75586539 -41.23358404 754.30111156 -41.2253474 747.84634673 C-41.21866362 742.51716877 -41.21420242 737.18799284 -41.21114242 731.85881162 C-41.17248621 665.59003159 -40.99026884 599.32159423 -40.77431462 533.05318829 C-40.73697361 521.5943763 -40.70037478 510.13556214 -40.66421318 498.67674637 C-40.6535595 495.30346158 -40.642902 491.93017681 -40.6322431 488.55689204 C-40.62958983 487.71716438 -40.62693655 486.87743673 -40.62420288 486.01226278 C-40.55046194 462.68318616 -40.47580516 439.35411263 -40.39914799 416.02504539 C-40.39630749 415.16043535 -40.39346698 414.2958253 -40.39054041 413.40501494 C-40.37616047 409.02851121 -40.36177349 404.6520075 -40.347385 400.2755038 C-40.34453031 399.40714474 -40.34167563 398.53878569 -40.33873445 397.64411272 C-40.33296181 395.88816277 -40.32718857 394.13221283 -40.32141471 392.37626289 C-40.23077482 364.80269108 -40.14384934 337.22910954 -40.05957031 309.65551758 C-39.96378652 278.318504 -39.86493036 246.98150211 -39.76179308 215.64451182 C-39.75081154 212.3045487 -39.73984171 208.96458553 -39.72887993 205.62462234 C-39.72618105 204.80284729 -39.72348217 203.98107224 -39.72070151 203.13439491 C-39.67772107 190.02599555 -39.63760866 176.91758898 -39.59855602 163.80917739 C-39.55937034 150.68297074 -39.51677269 137.55677844 -39.47080047 124.43059377 C-39.44608597 117.34965514 -39.42277653 110.26871919 -39.40359497 103.18776321 C-39.35873935 86.87234787 -39.28596279 70.55768214 -39.12963867 54.24291992 C-39.12190968 53.36466287 -39.11418068 52.48640582 -39.10621747 51.58153492 C-39.0589391 46.46240656 -38.97480595 41.34577941 -38.86106873 36.22769165 C-38.84809944 35.09004187 -38.83513016 33.95239209 -38.82176787 32.78026807 C-38.53328585 23.15877038 -35.61542285 16.0727568 -29.05151367 9.03198242 C-20.34540478 0.9275152 -11.46740141 -0.05689277 0 0 Z M252.64379883 429.37963867 C248.12236376 434.23129091 244.70705425 439.26077839 241.87036133 445.24291992 C241.45012695 446.12463867 241.02989258 447.00635742 240.59692383 447.91479492 C236.97237937 456.04256127 234.47099721 464.49442576 232.87036133 473.24291992 C232.69013428 474.22607178 232.50990723 475.20922363 232.32421875 476.22216797 C230.29197969 489.50556383 230.53080132 502.91787552 230.5546875 516.32275391 C230.55931895 519.13932259 230.55238709 521.95545951 230.53417969 524.77197266 C230.3455412 554.22847399 231.3261694 587.33078913 253.19848633 609.83276367 C266.39668597 621.73815721 281.36756297 623.96998429 298.60083008 623.37915039 C314.09167945 622.44929949 326.04875715 617.5896626 336.87036133 606.24291992 C355.22354937 585.48012295 351.35629234 548.83588653 351.26147461 523.22045898 C351.24436086 518.55054361 351.25427502 513.88114508 351.272192 509.2112484 C351.28316615 505.54576909 351.27952245 501.8804072 351.27180862 498.21492386 C351.26984531 496.49539754 351.27212491 494.77585959 351.27924728 493.05634689 C351.34997835 471.20526552 349.90367129 444.556049 333.99536133 427.86791992 C312.64485165 408.23987162 273.34371302 409.51498418 252.64379883 429.37963867 Z " fill="#424241" transform="translate(2111.129638671875,1273.757080078125)"/>
<path d="M0 0 C1.77057197 1.4169933 3.5414195 2.83364235 5.3125 4.25 C67.43765399 55.36563303 95.73506674 130.76326565 103.40527344 209.09912109 C103.63760724 211.73129303 103.82512472 214.36332272 104 217 C104.04236786 217.63802551 104.08473572 218.27605103 104.12838745 218.93341064 C105.0432436 233.24625248 105.18624645 247.54642692 105.18530273 261.88525391 C105.18751709 265.65408176 105.20583133 269.42262876 105.22460938 273.19140625 C105.22753957 275.61979068 105.22952687 278.04817648 105.23046875 280.4765625 C105.23765427 281.5871402 105.24483978 282.6977179 105.25224304 283.84194946 C105.22817906 292.10034535 104.85718042 299.98694018 100.75 307.3125 C99.11212535 310.22396564 99.11212535 310.22396564 99.5625 313.5 C100.036875 314.325 100.51125 315.15 101 316 C105.60098009 326.39821501 105.06757929 336.41256436 104.3125 347.5625 C104.26676849 348.24362854 104.22103699 348.92475708 104.17391968 349.62652588 C100.06162614 409.43488585 75.93842074 463.77524348 30.6953125 503.7421875 C3.07927346 526.8756231 -29.73732135 544.1553907 -64 555 C-65.10053711 555.35304199 -66.20107422 555.70608398 -67.33496094 556.06982422 C-122.72067225 573.71170048 -180.10920437 578.72334638 -238 578 C-239.14645996 577.98743164 -240.29291992 577.97486328 -241.47412109 577.96191406 C-298.42646097 577.16332638 -358.52371042 568.80600896 -411 546 C-412.51937458 545.35640085 -414.03890515 544.71316982 -415.55859375 544.0703125 C-433.4724677 536.39680955 -450.0389162 527.17397366 -466 516 C-467.02738281 515.28972656 -468.05476563 514.57945312 -469.11328125 513.84765625 C-476.43971308 508.66295992 -483.23969131 502.89137441 -490 497 C-490.86625 496.2471875 -491.7325 495.494375 -492.625 494.71875 C-502.97131679 485.56623899 -512.53911038 475.93690247 -521 465 C-521.6801416 464.1344751 -521.6801416 464.1344751 -522.37402344 463.25146484 C-557.38026846 418.59921043 -576.76201835 364.08824395 -583 308 C-583.12970184 306.83750229 -583.12970184 306.83750229 -583.26202393 305.65151978 C-584.914341 290.3607733 -585.31306076 275.17558333 -585.26074219 259.80297852 C-585.25002056 256.06965873 -585.26071004 252.33682099 -585.2734375 248.60351562 C-585.28673137 227.91595798 -584.05871953 207.49374261 -580.75 187.0625 C-580.64295746 186.39510803 -580.53591492 185.72771606 -580.42562866 185.0401001 C-575.18757487 152.60414736 -565.8142299 121.37470459 -551 92 C-550.52836426 91.06220703 -550.05672852 90.12441406 -549.57080078 89.15820312 C-538.74614084 67.91210457 -525.18061517 48.93407502 -509.12109375 31.34375 C-507.18168497 29.20075688 -505.30670701 27.01655362 -503.4375 24.8125 C-500.5577644 21.51005092 -497.46971341 18.64558178 -494.125 15.8203125 C-492.69934979 14.59907537 -491.30311315 13.342709 -489.9375 12.0546875 C-433.51640627 -41.03599444 -353.1519979 -61.33453928 -278 -67 C-277.11135254 -67.07057617 -276.22270508 -67.14115234 -275.30712891 -67.21386719 C-199.08413798 -73.04513425 -115.19775353 -63.29900497 0 0 Z M-288.73828125 144.77734375 C-293.21287261 149.17465374 -297.99055276 153.97165827 -300 160 C-259.08 160 -218.16 160 -176 160 C-181.10455141 147.23862148 -189.61945574 139.66350996 -202 134.1875 C-227.64740351 124.26052275 -267.35861636 126.43677172 -288.73828125 144.77734375 Z M-310 322 C-306.25649487 340.72403328 -299.95936272 357.27147505 -284 369 C-262.40950722 382.92214534 -228.50618781 383.03981774 -204 378 C-189.44520603 374.46564288 -175.42066227 369.19267422 -167.0625 355.875 C-163.01020508 347.65585765 -162.13487301 338.25508246 -161.46386719 329.23535156 C-161.37627136 328.06699768 -161.28867554 326.8986438 -161.19842529 325.69488525 C-161.10020477 324.36091705 -161.10020477 324.36091705 -161 323 C-174.95826054 322.82707687 -188.91659357 322.66072228 -202.875 322.5 C-203.90618076 322.48812275 -204.93736153 322.4762455 -205.99979019 322.46400833 C-240.66864556 322.06682693 -275.32886751 321.85820024 -310 322 Z " fill="#424241" transform="translate(3334,1540)"/>
<path d="M0 0 C0.71859192 0.10654907 1.43718384 0.21309814 2.17755127 0.32287598 C61.53125977 9.2039371 120.06317244 29.78375547 167 68 C167.54011719 68.43715332 168.08023438 68.87430664 168.63671875 69.32470703 C182.69239777 80.78794875 196.00004501 93.55379317 207 108 C207.89096067 109.11665719 208.7829565 110.23248893 209.67578125 111.34765625 C255.61921222 169.62416721 272.26541055 243.99427154 272.1875 316.8125 C272.18659363 318.37661118 272.18659363 318.37661118 272.18566895 319.97232056 C272.16089018 335.73206753 271.88720928 351.33489642 270 367 C269.86577637 368.12277344 269.73155273 369.24554687 269.59326172 370.40234375 C261.91882057 432.47777916 239.95074734 492.84035435 197.26171875 539.515625 C195.80758885 541.11290758 194.37099172 542.72642639 192.95703125 544.359375 C183.07524345 555.70581803 171.90202346 565.88428621 159.73828125 574.73291016 C158.5376225 575.60810945 157.34263006 576.4911165 156.15234375 577.38037109 C139.14392683 590.08084807 120.5257993 600.66803412 101 609 C100.18225098 609.34981934 99.36450195 609.69963867 98.52197266 610.06005859 C75.25646552 619.87039788 50.77754674 627.16474987 26 632 C24.91992676 632.21108398 23.83985352 632.42216797 22.72705078 632.63964844 C-8.6411874 638.64605086 -40.21756512 641.2307592 -72.125 641.25 C-73.65219162 641.25101212 -73.65219162 641.25101212 -75.2102356 641.25204468 C-145.50698171 641.17888656 -219.04551049 628.92074789 -280 592 C-280.68690918 591.59185059 -281.37381836 591.18370117 -282.08154297 590.76318359 C-291.57171969 585.11316665 -300.40220709 578.92507056 -309 572 C-309.92167969 571.27167969 -310.84335938 570.54335937 -311.79296875 569.79296875 C-326.78751631 557.78434841 -341.40251294 544.34898472 -353 529 C-353.92245218 527.81714266 -354.84568695 526.63489538 -355.76953125 525.453125 C-393.04113374 477.32883747 -412.30646119 417.24959826 -417 357 C-417.08757568 355.89382324 -417.17515137 354.78764648 -417.26538086 353.64794922 C-418.08484533 342.14035803 -418.20050574 330.65868699 -418.1875 319.125 C-418.18689575 318.13177734 -418.1862915 317.13855469 -418.18566895 316.11523438 C-418.160193 300.65568401 -417.80160282 285.37045304 -416 270 C-415.79866455 268.25493164 -415.79866455 268.25493164 -415.59326172 266.47460938 C-413.68186296 250.39599919 -411.01731415 234.68292256 -407 219 C-406.65509521 217.58799316 -406.65509521 217.58799316 -406.30322266 216.14746094 C-399.86005763 189.91239359 -389.52476492 164.39211421 -376 141 C-375.58685547 140.28505371 -375.17371094 139.57010742 -374.74804688 138.83349609 C-365.46931633 123.00009971 -354.17221336 108.69222406 -342 95 C-341.51611816 94.4529541 -341.03223633 93.9059082 -340.53369141 93.34228516 C-335.62067043 87.80790667 -330.67418309 82.43636706 -324.984375 77.6796875 C-323.60769459 76.51438716 -322.2655172 75.30756774 -320.953125 74.0703125 C-308.97975363 62.79882842 -295.22664682 53.19899548 -281 45 C-279.81899112 44.30211598 -278.63800238 43.60419789 -277.45703125 42.90625 C-235.6191649 18.48227559 -187.94523682 4.78635076 -140 -1 C-138.97922363 -1.13535156 -137.95844727 -1.27070312 -136.90673828 -1.41015625 C-92.43917901 -7.12879385 -44.31321072 -6.66619891 0 0 Z M-127 220 C-133.88390053 229.1507203 -138.5013303 239.10119812 -141.1875 250.1875 C-141.3424292 250.82123535 -141.4973584 251.4549707 -141.65698242 252.10791016 C-144.90511254 266.57508524 -145.31314825 281.0145847 -145.30078125 295.765625 C-145.3046827 297.73508797 -145.30902026 299.70455012 -145.31376648 301.67401123 C-145.32117391 305.77863303 -145.3209779 309.88316873 -145.31567383 313.98779297 C-145.309891 319.18919647 -145.32680875 324.3902425 -145.3500185 329.59158707 C-145.36491295 333.65338116 -145.36560638 337.7150923 -145.36250877 341.77690887 C-145.36301428 343.69181779 -145.36810289 345.60673235 -145.37832069 347.52161407 C-145.49825468 373.13647118 -142.94952944 400.21799772 -124.75 419.8125 C-108.3231712 435.2990726 -85.3158337 435.64899536 -64.03417969 435.140625 C-48.57826365 434.4242903 -32.05110462 429.89203424 -20.77734375 418.81640625 C-13.13424885 409.84791917 -8.40925706 399.3543607 -5.1875 388.125 C-4.99260986 387.45533203 -4.79771973 386.78566406 -4.59692383 386.09570312 C-0.76253786 371.64366751 -0.68694674 356.81533361 -0.69921875 341.98046875 C-0.69531782 339.98618991 -0.69098036 337.99191189 -0.68623352 335.99763489 C-0.67882578 331.84173882 -0.67902261 327.68592778 -0.68432617 323.5300293 C-0.69011302 318.25902706 -0.67318169 312.98837711 -0.6499815 307.71743298 C-0.63510155 303.60506731 -0.63439164 299.49278372 -0.63749123 295.38039589 C-0.63698513 293.43954077 -0.63188483 291.49868015 -0.62167931 289.55785179 C-0.50850261 265.03178818 -2.8038157 237.81653168 -20.65625 219.25 C-37.7319827 202.85729661 -58.51814795 201.1898945 -81.1796875 201.65234375 C-98.29969381 202.3129913 -115.178938 206.83511785 -127 220 Z " fill="#424241" transform="translate(1759,1472)"/>
<path d="M0 0 C5.07680553 4.68628203 8.36399611 11.03620025 9.6875 17.8125 C9.78283198 20.26099108 9.82671548 22.68067486 9.82121277 25.12892151 C9.82347833 25.86778451 9.82574388 26.60664752 9.82807809 27.36790031 C9.83441057 29.8449735 9.83358919 32.32199187 9.83276367 34.79907227 C9.83575576 36.57489594 9.8391584 38.35071897 9.84294128 40.12654114 C9.85178356 44.95333868 9.85411958 49.78011849 9.85475707 54.60692334 C9.8554678 57.62488759 9.85760263 60.64284734 9.86025429 63.66081047 C9.86951064 74.1968095 9.87358908 84.73279587 9.87280273 95.26879883 C9.87220286 105.0764173 9.88273622 114.8839806 9.8985464 124.69158512 C9.91164673 133.11979606 9.91698554 141.54798903 9.91634732 149.97621006 C9.91609294 155.0061839 9.91891102 160.03610879 9.92952538 165.06607246 C9.93924754 169.80288769 9.93925741 174.53960762 9.93200874 179.27642632 C9.93096779 181.0085349 9.93329651 182.74064955 9.9393692 184.4727478 C9.98744684 199.14446323 9.79177547 212.19239093 -0.5 223.625 C-7.77484446 230.47097809 -17.45334283 231.96234913 -27.09863281 231.89428711 C-27.75024887 231.89122055 -28.40186493 231.88815399 -29.07322693 231.88499451 C-30.48252865 231.87787206 -31.89182045 231.8684994 -33.30109406 231.85709953 C-35.56025354 231.839496 -37.81933994 231.82933756 -40.07855225 231.82118225 C-46.50116912 231.79695893 -52.9236907 231.76213506 -59.34619141 231.71655273 C-111.34027367 229.88312555 -111.34027367 229.88312555 -157.36328125 250.8515625 C-170.77655038 264.34547252 -175.8416888 281.65862572 -179 299.875 C-179.11947998 300.55771973 -179.23895996 301.24043945 -179.36206055 301.94384766 C-181.65162785 316.14546495 -181.47301072 330.513631 -181.50195312 344.85205078 C-181.50991149 347.05183566 -181.51830066 349.25161902 -181.52708435 351.45140076 C-181.54505209 356.16834182 -181.56010047 360.88527971 -181.57286072 365.6022377 C-181.59326108 373.09876873 -181.62089608 380.59526291 -181.64953613 388.09176636 C-181.68915421 398.63799221 -181.72610103 409.18422402 -181.76025391 419.73046875 C-181.76241671 420.39795934 -181.76457951 421.06544992 -181.76680785 421.7531675 C-181.77992446 425.80652464 -181.79296351 429.85988204 -181.80598927 433.91323948 C-181.86331855 451.73755882 -181.92232389 469.56186859 -181.99004889 487.38615215 C-182.01343961 493.59885142 -182.03503143 499.81154529 -182.05213928 506.02426529 C-182.09190814 520.31947788 -182.15428604 534.61410182 -182.28593063 548.90879536 C-182.30346819 550.82543466 -182.32002139 552.74208325 -182.33552933 554.65874004 C-182.37854555 559.8568474 -182.44120419 565.05384697 -182.53975773 570.25121284 C-182.56609212 571.76556374 -182.58623007 573.28003858 -182.59934902 574.79456162 C-182.67686791 582.97914795 -183.09356174 589.6716539 -187.3125 596.8125 C-187.78171875 597.62203125 -188.2509375 598.4315625 -188.734375 599.265625 C-193.64856771 605.91423867 -199.34805618 609.59869821 -207.3125 611.8125 C-210.30603626 612.09281934 -213.28261104 612.08264876 -216.28755188 612.06646729 C-217.1806263 612.06958727 -218.07370073 612.07270725 -218.99383801 612.07592177 C-221.98074142 612.08388692 -224.96744084 612.0775838 -227.9543457 612.07128906 C-230.09823729 612.07399964 -232.24212795 612.07756094 -234.38601685 612.08190918 C-240.20635137 612.09102915 -246.026615 612.08749007 -251.84695077 612.08115101 C-257.94062761 612.07608706 -264.03429839 612.08078375 -270.12797546 612.08392334 C-280.36454355 612.08756265 -290.60108278 612.08276565 -300.83764648 612.07324219 C-312.66415133 612.06236644 -324.49058717 612.06587698 -336.31709033 612.076895 C-346.47523568 612.08597925 -356.63336028 612.08724731 -366.79150838 612.08201766 C-372.8564884 612.07890311 -378.92143603 612.07847433 -384.98641396 612.08509064 C-390.69176705 612.09087968 -396.39703148 612.08683861 -402.10237503 612.07530212 C-404.1933102 612.07266351 -406.28425286 612.07340696 -408.37518501 612.07782745 C-411.23572224 612.08331609 -414.09597776 612.0764085 -416.95649719 612.06646729 C-418.18921127 612.07315945 -418.18921127 612.07315945 -419.44682866 612.07998681 C-429.72148397 612.0110271 -439.22520806 609.76914262 -447 602.75 C-456.26151142 592.87388027 -456.47307774 580.74795819 -456.40151978 567.99743652 C-456.39899781 566.81924304 -456.39647584 565.64104955 -456.39387745 564.42715323 C-456.38585682 561.16491944 -456.3732517 557.90274092 -456.35868879 554.64053097 C-456.34400587 551.09902792 -456.33526891 547.55750938 -456.32577419 544.0159893 C-456.30838028 537.83475571 -456.28717879 531.65354437 -456.2634449 525.472332 C-456.22845836 516.35915771 -456.1992978 507.24597144 -456.17132206 498.13277327 C-456.11888241 481.12157828 -456.0595606 464.11041168 -455.99793297 447.09924781 C-455.95078325 434.07803137 -455.90530618 421.05681011 -455.86105347 408.0355835 C-455.85472196 406.17492616 -455.84838966 404.31426882 -455.84205657 402.45361149 C-455.83254464 399.65865384 -455.82303323 396.86369619 -455.81352555 394.06873853 C-455.72733266 368.74258322 -455.63935405 343.41643486 -455.54692078 318.09030151 C-455.54353258 317.16142245 -455.54014439 316.23254338 -455.53665353 315.27551647 C-455.52302721 311.53993479 -455.50939577 307.80435314 -455.49576404 304.06877149 C-455.48561683 301.28770965 -455.47547331 298.5066478 -455.46533203 295.72558594 C-455.46199894 294.81171742 -455.45866584 293.89784891 -455.45523174 292.95628741 C-455.35199475 264.62737087 -455.25881892 236.29843909 -455.17472591 207.96945958 C-455.16378525 204.2839813 -455.15282607 200.59850307 -455.1418457 196.9130249 C-455.13970651 196.19465117 -455.13756732 195.47627743 -455.13536331 194.7361348 C-455.08045381 176.34133611 -455.01776093 157.9465648 -454.95258713 139.55179977 C-454.90839548 127.0321823 -454.86723555 114.51257184 -454.83404541 101.99291992 C-454.80621702 91.50717622 -454.7718298 81.02148121 -454.72843772 70.53578985 C-454.70688888 65.28244039 -454.68842853 60.02913116 -454.67869377 54.77574539 C-454.66984805 50.03146202 -454.65200312 45.28730258 -454.62684703 40.54307842 C-454.61940257 38.83974054 -454.61526763 37.13638422 -454.61482167 35.43303013 C-454.60853686 22.06466876 -454.28191039 9.79689048 -444.234375 -0.26953125 C-434.37869691 -8.45387931 -424.28002055 -8.62027879 -412.03100586 -8.54394531 C-410.39063406 -8.5447373 -408.75026246 -8.54683796 -407.1098938 -8.55014038 C-402.67345309 -8.55525426 -398.23724622 -8.54177517 -393.800843 -8.52461338 C-389.13852077 -8.50950369 -384.47620065 -8.5107495 -379.81385803 -8.50994873 C-371.97848562 -8.50626082 -364.14320104 -8.49132454 -356.30786133 -8.46875 C-346.29352422 -8.43995373 -336.27925803 -8.4295312 -326.264884 -8.4250679 C-317.61090153 -8.42106488 -308.95693408 -8.40856231 -300.30296254 -8.39472103 C-297.54437688 -8.39065014 -294.78579174 -8.38771019 -292.02720451 -8.38492584 C-287.66459123 -8.37997393 -283.30201912 -8.36967433 -278.93942642 -8.35548782 C-277.35132406 -8.35102556 -275.76321623 -8.34814089 -274.17510796 -8.34708023 C-238.41030979 -8.31787389 -238.41030979 -8.31787389 -227.1015625 1.8359375 C-222.66618872 6.73615395 -220.55258243 11.38518415 -219.0625 17.6875 C-218.88976563 18.37585937 -218.71703125 19.06421875 -218.5390625 19.7734375 C-218.11978358 21.45055318 -217.71464456 23.13119349 -217.3125 24.8125 C-216.64214722 24.28462891 -216.64214722 24.28462891 -215.95825195 23.74609375 C-162.76998251 -17.97126388 -59.62495234 -47.02041279 0 0 Z " fill="#424241" transform="translate(1336.3125,1486.1875)"/>
<path d="M0 0 C1.77057197 1.4169933 3.5414195 2.83364235 5.3125 4.25 C67.43765399 55.36563303 95.73506674 130.76326565 103.40527344 209.09912109 C103.63760724 211.73129303 103.82512472 214.36332272 104 217 C104.04236786 217.63802551 104.08473572 218.27605103 104.12838745 218.93341064 C105.0432436 233.24625248 105.18624645 247.54642692 105.18530273 261.88525391 C105.18751709 265.65408176 105.20583133 269.42262876 105.22460938 273.19140625 C105.22753957 275.61979068 105.22952687 278.04817648 105.23046875 280.4765625 C105.23765427 281.5871402 105.24483978 282.6977179 105.25224304 283.84194946 C105.22817906 292.10034535 104.85718042 299.98694018 100.75 307.3125 C99.11212535 310.22396564 99.11212535 310.22396564 99.5625 313.5 C100.036875 314.325 100.51125 315.15 101 316 C105.60098009 326.39821501 105.06757929 336.41256436 104.3125 347.5625 C104.26676849 348.24362854 104.22103699 348.92475708 104.17391968 349.62652588 C100.06162614 409.43488585 75.93842074 463.77524348 30.6953125 503.7421875 C3.07927346 526.8756231 -29.73732135 544.1553907 -64 555 C-65.10053711 555.35304199 -66.20107422 555.70608398 -67.33496094 556.06982422 C-122.72067225 573.71170048 -180.10920437 578.72334638 -238 578 C-239.14645996 577.98743164 -240.29291992 577.97486328 -241.47412109 577.96191406 C-298.42646097 577.16332638 -358.52371042 568.80600896 -411 546 C-412.51937458 545.35640085 -414.03890515 544.71316982 -415.55859375 544.0703125 C-433.4724677 536.39680955 -450.0389162 527.17397366 -466 516 C-467.02738281 515.28972656 -468.05476563 514.57945312 -469.11328125 513.84765625 C-476.43971308 508.66295992 -483.23969131 502.89137441 -490 497 C-490.86625 496.2471875 -491.7325 495.494375 -492.625 494.71875 C-502.97131679 485.56623899 -512.53911038 475.93690247 -521 465 C-521.6801416 464.1344751 -521.6801416 464.1344751 -522.37402344 463.25146484 C-557.38026846 418.59921043 -576.76201835 364.08824395 -583 308 C-583.12970184 306.83750229 -583.12970184 306.83750229 -583.26202393 305.65151978 C-584.914341 290.3607733 -585.31306076 275.17558333 -585.26074219 259.80297852 C-585.25002056 256.06965873 -585.26071004 252.33682099 -585.2734375 248.60351562 C-585.28673137 227.91595798 -584.05871953 207.49374261 -580.75 187.0625 C-580.64295746 186.39510803 -580.53591492 185.72771606 -580.42562866 185.0401001 C-575.18757487 152.60414736 -565.8142299 121.37470459 -551 92 C-550.52836426 91.06220703 -550.05672852 90.12441406 -549.57080078 89.15820312 C-538.74614084 67.91210457 -525.18061517 48.93407502 -509.12109375 31.34375 C-507.18168497 29.20075688 -505.30670701 27.01655362 -503.4375 24.8125 C-500.5577644 21.51005092 -497.46971341 18.64558178 -494.125 15.8203125 C-492.69934979 14.59907537 -491.30311315 13.342709 -489.9375 12.0546875 C-433.51640627 -41.03599444 -353.1519979 -61.33453928 -278 -67 C-277.11135254 -67.07057617 -276.22270508 -67.14115234 -275.30712891 -67.21386719 C-199.08413798 -73.04513425 -115.19775353 -63.29900497 0 0 Z M-309 -32 C-310.60892363 -31.78308371 -312.21824853 -31.56910266 -313.828125 -31.359375 C-373.37627546 -23.32004276 -431.34510905 0.10001118 -475 42 C-475.56219238 42.53496094 -476.12438477 43.06992188 -476.70361328 43.62109375 C-484.76968527 51.33317583 -492.08415069 59.32008721 -498.72949219 68.28955078 C-499.95131192 69.9344526 -501.19631214 71.55929038 -502.4453125 73.18359375 C-540.78467026 123.95837963 -553.65278064 189.1568745 -553.44604492 251.4621582 C-553.43686737 254.35730953 -553.44378642 257.25165287 -553.46655273 260.14672852 C-554.05205128 335.12101844 -532.63222667 408.05087414 -480 463 C-479.29101562 463.75023437 -478.58203125 464.50046875 -477.8515625 465.2734375 C-472.62614013 470.66948591 -466.88602316 475.34539484 -461 480 C-459.9996875 480.80566406 -458.999375 481.61132812 -457.96875 482.44140625 C-449.731772 489.00057678 -441.05627874 494.64075969 -432 500 C-431.3080957 500.4125 -430.61619141 500.825 -429.90332031 501.25 C-369.59491054 536.90578038 -296.40164604 546.19117397 -227.5 546.1875 C-226.40192017 546.18840637 -225.30384033 546.18931274 -224.17248535 546.19024658 C-203.35868784 546.18830362 -182.64373425 545.56722561 -161.9375 543.375 C-161.14538116 543.29207703 -160.35326233 543.20915405 -159.53713989 543.12371826 C-134.04736682 540.40496905 -108.37943401 536.05411399 -84 528 C-82.90316895 527.64566895 -81.80633789 527.29133789 -80.67626953 526.92626953 C-39.54756162 513.56903597 2.2439894 493.49410671 30 459 C30.73347656 458.11570312 31.46695313 457.23140625 32.22265625 456.3203125 C43.00778967 442.88589909 51.87236154 427.98298576 58.21899414 411.95800781 C58.78493581 410.53917311 59.36997565 409.12790786 59.96655273 407.72167969 C62.59502239 401.43130365 64.45405369 395.1195616 66.0625 388.5 C66.31926514 387.45481201 66.57603027 386.40962402 66.84057617 385.33276367 C71.23163206 367.07829792 73 349.87372133 73 331 C5.68 331 -61.64 331 -131 331 C-131.66 337.6 -132.32 344.2 -133 351 C-137.02869122 365.43614355 -142.41516136 376.36031763 -153 387 C-153.59167969 387.62648438 -154.18335937 388.25296875 -154.79296875 388.8984375 C-174.49115593 408.11830225 -207.04093879 410.4457166 -232.875 410.4375 C-233.87656128 410.43823517 -234.87812256 410.43897034 -235.91003418 410.43972778 C-250.80554397 410.41096219 -264.78344202 409.87990202 -279 405 C-279.77569336 404.74299316 -280.55138672 404.48598633 -281.35058594 404.22119141 C-300.43336723 397.70424157 -316.09742462 385.79756715 -326 368 C-326.32210449 367.43071777 -326.64420898 366.86143555 -326.97607422 366.27490234 C-331.37320986 358.40468206 -334.75536375 350.44261392 -337.375 341.8125 C-337.61355713 341.03011963 -337.85211426 340.24773926 -338.09790039 339.44165039 C-341.39360225 327.92991982 -342.36182621 316.09175998 -343.125 304.1875 C-343.25455078 302.27227539 -343.25455078 302.27227539 -343.38671875 300.31835938 C-343.59610021 297.21253436 -343.80045192 294.10646959 -344 291 C-343.35722689 291.00211597 -342.71445378 291.00423194 -342.0522027 291.00641203 C-303.44206184 291.1334737 -264.8319158 291.25884097 -226.22176287 291.38218227 C-221.52365568 291.3971919 -216.82554853 291.41221486 -212.12744141 291.42724609 C-211.19263587 291.43023671 -210.25783033 291.43322732 -209.29469734 291.43630856 C-196.24091997 291.4780975 -183.18714509 291.5206007 -170.13337195 291.56369197 C-147.62017027 291.63800859 -125.10696445 291.7109011 -102.59375 291.78125 C-101.27921522 291.78536243 -101.27921522 291.78536243 -99.93812418 291.78955793 C-42.29195322 291.96964871 15.35350246 292.07684039 73 292 C73.86314935 243.88548424 73.86314935 243.88548424 70 196 C69.85014648 194.91525391 69.70029297 193.83050781 69.54589844 192.71289062 C68.55646637 185.7679598 67.3565822 178.8819941 66 172 C65.74162354 170.65566895 65.74162354 170.65566895 65.47802734 169.28417969 C58.13072835 131.79463745 43.25985482 93.83735415 19 64 C18.32066406 63.13117188 17.64132812 62.26234375 16.94140625 61.3671875 C-29.46356609 2.95652507 -101.4067736 -24.24829727 -173.80688477 -32.734375 C-218.33098887 -37.77354286 -264.61930919 -38.61687943 -309 -32 Z M-310 322 C-306.25649487 340.72403328 -299.95936272 357.27147505 -284 369 C-262.40950722 382.92214534 -228.50618781 383.03981774 -204 378 C-189.44520603 374.46564288 -175.42066227 369.19267422 -167.0625 355.875 C-163.01020508 347.65585765 -162.13487301 338.25508246 -161.46386719 329.23535156 C-161.37627136 328.06699768 -161.28867554 326.8986438 -161.19842529 325.69488525 C-161.10020477 324.36091705 -161.10020477 324.36091705 -161 323 C-174.95826054 322.82707687 -188.91659357 322.66072228 -202.875 322.5 C-203.90618076 322.48812275 -204.93736153 322.4762455 -205.99979019 322.46400833 C-240.66864556 322.06682693 -275.32886751 321.85820024 -310 322 Z " fill="#C5FE00" transform="translate(3334,1540)"/>
<path d="M0 0 C1.21362717 -0.00186436 2.42725433 -0.00372871 3.67765808 -0.00564957 C7.01418182 -0.00865129 10.35046136 -0.00268756 13.68695617 0.00735211 C17.24526765 0.01598648 20.8035734 0.01329829 24.3618927 0.01219177 C32.01340994 0.01205446 39.66485205 0.02694382 47.31634521 0.0448761 C52.04618024 0.05582461 56.77601652 0.06312389 61.50585938 0.06970215 C80.87382044 0.09744365 100.24161527 0.15027006 119.60946524 0.22085202 C124.22086043 0.23751252 128.83225743 0.2520142 133.44366455 0.26507568 C145.82475182 0.30048819 158.20534192 0.35368534 170.58609009 0.45346069 C174.08738012 0.48139519 177.58855569 0.50094522 181.0899353 0.51309204 C185.1190787 0.5278268 189.14759594 0.56153913 193.17645836 0.61104012 C194.60324584 0.62567594 196.03011749 0.63395923 197.45697975 0.63485527 C207.98128023 0.64781001 217.34820946 1.95163482 225.27270508 9.42651367 C235.98385952 21.60423205 235.16124143 35.92080687 235.09741211 51.20849609 C235.09684714 53.1115722 235.09716622 55.01464875 235.09829712 56.91772461 C235.0988683 62.05537784 235.08715219 67.19293668 235.0731492 72.33056808 C235.06060251 77.71038945 235.05946825 83.09021325 235.05709839 88.470047 C235.05089517 98.64470882 235.03450007 108.81932739 235.01439941 118.99397022 C234.9920043 130.58287421 234.98103791 142.17178032 234.97100854 153.76070058 C234.95013278 177.58813096 234.9149794 201.41552301 234.87036133 225.24291992 C235.45741852 224.9596283 236.04447571 224.67633667 236.64932251 224.38446045 C239.3594971 223.07887748 242.07193732 221.7780674 244.78442383 220.47729492 C246.1689978 219.80899658 246.1689978 219.80899658 247.58154297 219.12719727 C310.88405498 188.82428198 390.29091758 188.96866838 455.99536133 211.49291992 C512.71032474 231.76046356 559.75193131 272.85973716 586.05908203 327.24609375 C586.68120701 328.56052294 587.29892687 329.87704561 587.91235352 331.19555664 C588.92004767 333.34910486 589.96140936 335.48457395 591.00317383 337.62182617 C617.25296632 392.52293891 624.12403486 455.74069281 624.05786133 515.93041992 C624.05695496 517.46753632 624.05695496 517.46753632 624.05603027 519.03570557 C623.92465521 601.64658978 609.61616092 690.44413624 555.87036133 756.24291992 C555.1044165 757.18240479 555.1044165 757.18240479 554.32299805 758.14086914 C544.25924837 770.38493616 533.44780508 781.55511464 520.87036133 791.24291992 C520.34168457 791.65864258 519.81300781 792.07436523 519.26831055 792.50268555 C508.48742271 800.94724521 496.94142513 807.80396155 484.87036133 814.24291992 C484.09208984 814.65815918 483.31381836 815.07339844 482.51196289 815.5012207 C452.98953653 830.9644371 419.83229159 838.09353108 386.87036133 841.24291992 C386.13462891 841.31349609 385.39889648 841.38407227 384.64086914 841.45678711 C380.05490549 841.87090423 375.47206685 842.11494665 370.87036133 842.24291992 C370.08612793 842.26483398 369.30189453 842.28674805 368.49389648 842.30932617 C313.39891215 843.57952754 255.17010024 831.72735479 210.87036133 797.24291992 C209.687435 796.33709974 208.5037963 795.43220937 207.31958008 794.52807617 C204.16041381 792.11172267 201.0128231 789.68095067 197.87036133 787.24291992 C195.72106731 790.93285832 194.93244802 794.875821 193.99536133 798.99291992 C191.51450904 809.21898388 188.36600733 816.50911263 179.87036133 823.24291992 C173.33625436 826.96596609 167.52217419 828.36761023 160.0296936 828.36990356 C159.34194992 828.37146356 158.65420624 828.37302355 157.94562185 828.37463081 C155.64137909 828.37861878 153.33720224 828.37545953 151.03295898 828.37231445 C149.38022829 828.37366959 147.72749789 828.37545016 146.07476807 828.37762451 C141.58246513 828.38218896 137.09018514 828.38041238 132.59788179 828.37724543 C127.88787557 828.37471251 123.1778713 828.37706236 118.46786499 828.37863159 C110.5471766 828.38045235 102.62649752 828.3780513 94.70581055 828.37329102 C85.57650361 828.36786735 76.44721907 828.36959759 67.3179127 828.37511742 C59.46544696 828.37967371 51.61298793 828.38028627 43.76052129 828.37767875 C39.07755313 828.37612736 34.39459543 828.37589043 29.71162796 828.37921524 C25.29738839 828.38212992 20.88317727 828.38005298 16.46894073 828.37432098 C14.85903597 828.37301169 13.24912876 828.37335587 11.63922501 828.37558365 C-21.9560741 828.41774106 -21.9560741 828.41774106 -32.00463867 819.05541992 C-38.32211561 812.28031656 -41.25716579 804.71109789 -41.25260061 795.45875323 C-41.25455791 794.51843899 -41.2565152 793.57812475 -41.25853181 792.60931613 C-41.25556746 791.58406069 -41.2526031 790.55880525 -41.24954891 789.50248146 C-41.25033059 788.40585935 -41.25111226 787.30923724 -41.25191763 786.17938415 C-41.25325781 782.49478549 -41.24736232 778.8102345 -41.24143982 775.12564087 C-41.24075033 772.48730506 -41.24043887 769.84897155 -41.24055922 767.2106359 C-41.23988214 760.75586539 -41.23358404 754.30111156 -41.2253474 747.84634673 C-41.21866362 742.51716877 -41.21420242 737.18799284 -41.21114242 731.85881162 C-41.17248621 665.59003159 -40.99026884 599.32159423 -40.77431462 533.05318829 C-40.73697361 521.5943763 -40.70037478 510.13556214 -40.66421318 498.67674637 C-40.6535595 495.30346158 -40.642902 491.93017681 -40.6322431 488.55689204 C-40.62958983 487.71716438 -40.62693655 486.87743673 -40.62420288 486.01226278 C-40.55046194 462.68318616 -40.47580516 439.35411263 -40.39914799 416.02504539 C-40.39630749 415.16043535 -40.39346698 414.2958253 -40.39054041 413.40501494 C-40.37616047 409.02851121 -40.36177349 404.6520075 -40.347385 400.2755038 C-40.34453031 399.40714474 -40.34167563 398.53878569 -40.33873445 397.64411272 C-40.33296181 395.88816277 -40.32718857 394.13221283 -40.32141471 392.37626289 C-40.23077482 364.80269108 -40.14384934 337.22910954 -40.05957031 309.65551758 C-39.96378652 278.318504 -39.86493036 246.98150211 -39.76179308 215.64451182 C-39.75081154 212.3045487 -39.73984171 208.96458553 -39.72887993 205.62462234 C-39.72618105 204.80284729 -39.72348217 203.98107224 -39.72070151 203.13439491 C-39.67772107 190.02599555 -39.63760866 176.91758898 -39.59855602 163.80917739 C-39.55937034 150.68297074 -39.51677269 137.55677844 -39.47080047 124.43059377 C-39.44608597 117.34965514 -39.42277653 110.26871919 -39.40359497 103.18776321 C-39.35873935 86.87234787 -39.28596279 70.55768214 -39.12963867 54.24291992 C-39.12190968 53.36466287 -39.11418068 52.48640582 -39.10621747 51.58153492 C-39.0589391 46.46240656 -38.97480595 41.34577941 -38.86106873 36.22769165 C-38.84809944 35.09004187 -38.83513016 33.95239209 -38.82176787 32.78026807 C-38.53328585 23.15877038 -35.61542285 16.0727568 -29.05151367 9.03198242 C-20.34540478 0.9275152 -11.46740141 -0.05689277 0 0 Z M-7.12963867 32.24291992 C-7.50596367 105.62954489 -7.50596367 105.62954489 -7.84057617 179.01635742 C-7.84337757 179.67911995 -7.84617896 180.34188248 -7.84906524 181.02472872 C-8.20153355 264.41953763 -8.42358415 347.81478505 -8.64202684 431.21003401 C-8.67760504 444.78448392 -8.71399915 458.35893141 -8.75091144 471.93337776 C-8.94475697 543.28255367 -9.13755573 614.63172704 -9.15649414 685.98120117 C-9.15673652 686.85319711 -9.1569789 687.72519306 -9.15722862 688.62361312 C-9.16677668 724.49671988 -9.14434765 760.36981528 -9.12963867 796.24291992 C47.30036133 796.24291992 103.73036133 796.24291992 161.87036133 796.24291992 C172.31092718 757.72940816 172.31092718 757.72940816 178.87036133 718.24291992 C182.28939561 721.41996776 184.87397304 724.97436092 187.49536133 728.80541992 C191.49982137 734.53848311 195.77524128 739.68975178 200.56958008 744.78979492 C202.57843522 746.93166424 204.48166226 749.12094305 206.37036133 751.36791992 C235.08213886 784.21953515 279.71427046 801.87134907 321.87036133 808.24291992 C322.60931641 808.35571289 323.34827148 808.46850586 324.10961914 808.5847168 C351.90380503 812.54582029 380.31415671 810.94333862 407.87036133 806.24291992 C409.27560059 806.01862305 409.27560059 806.01862305 410.70922852 805.78979492 C443.52128755 800.51053626 476.31849129 786.6438766 501.87036133 765.24291992 C502.46220215 764.75114258 503.05404297 764.25936523 503.66381836 763.75268555 C514.18557403 754.97859267 523.33286044 746.00212726 531.87036133 735.24291992 C532.68891602 734.2297168 533.5074707 733.21651367 534.35083008 732.17260742 C540.64663682 724.2863326 545.94599506 716.04301908 550.87036133 707.24291992 C551.29961914 706.48543457 551.72887695 705.72794922 552.17114258 704.94750977 C560.24171559 690.58851836 566.30632053 675.72732287 571.87036133 660.24291992 C572.14605957 659.4875293 572.42175781 658.73213867 572.70581055 657.95385742 C582.15474747 631.92302512 587.65014282 602.83387659 589.87036133 575.24291992 C589.95769531 574.27580078 590.0450293 573.30868164 590.13500977 572.31225586 C591.78996331 553.5059656 592.08097708 534.73769571 592.12036133 515.86791992 C592.12553772 514.74253815 592.13071411 513.61715637 592.13604736 512.45767212 C592.19259332 496.86050801 591.48531232 481.45416995 590.10443115 465.91870117 C589.90966108 463.69217707 589.73104831 461.46621739 589.57006836 459.23706055 C586.76424382 420.80718101 577.05257632 380.82920397 559.87036133 346.24291992 C559.25789551 344.99357666 559.25789551 344.99357666 558.63305664 343.71899414 C535.41729717 296.71095337 496.98733314 259.28138094 446.87036133 242.24291992 C427.78340133 235.91465177 408.92610243 231.36349712 388.87036133 229.24291992 C387.50862793 229.09258301 387.50862793 229.09258301 386.11938477 228.93920898 C362.89756939 226.66952894 337.74527216 226.51407252 314.87036133 231.24291992 C313.83282715 231.45223145 312.79529297 231.66154297 311.72631836 231.87719727 C269.27425922 240.61496268 233.54829255 259.5649887 202.87036133 290.24291992 C202.87036133 205.10291992 202.87036133 119.96291992 202.87036133 32.24291992 C133.57036133 32.24291992 64.27036133 32.24291992 -7.12963867 32.24291992 Z " fill="#C5FE00" transform="translate(2111.129638671875,1273.757080078125)"/>
<path d="M0 0 C1.25702266 -0.00241442 2.51404532 -0.00482883 3.80915958 -0.00731641 C7.2927226 -0.01372174 10.77616915 -0.00766749 14.2597245 0.00044787 C18.02121654 0.00703404 21.78269575 0.00207364 25.54418945 -0.00143433 C32.9212346 -0.00647879 40.29823493 -0.00082712 47.67527451 0.00841597 C56.30374068 0.01883331 64.9321973 0.01872869 73.56066857 0.01824339 C89.00479529 0.01774233 104.44890137 0.02690597 119.89302063 0.04142761 C134.78788124 0.05542515 149.68272365 0.06260224 164.57759094 0.06193542 C165.94563284 0.06187549 165.94563284 0.06187549 167.34131195 0.06181435 C168.70724684 0.06175381 168.70724684 0.06175381 170.10077637 0.06169206 C187.14129585 0.06099506 204.18180774 0.06694446 221.22232473 0.07584528 C226.35254583 0.07840244 231.48276558 0.07978161 236.61298729 0.08017578 C300.64348084 0.08530405 300.64348084 0.08530405 326.4198761 0.67570496 C327.24065938 0.69372276 328.06144267 0.71174056 328.90709817 0.73030436 C396.98789445 2.292405 465.06275279 13.73835513 527.64717102 41.24723816 C528.4264093 41.58722839 529.20564758 41.92721863 530.00849915 42.2775116 C563.59401628 57.05934108 593.49084797 78.68834228 619.64717102 104.24723816 C620.71065332 105.27100795 621.77442817 106.29447398 622.83857727 107.31755066 C628.94001606 113.27472733 634.36045754 119.56517899 639.64717102 126.24723816 C640.62728618 127.4504117 641.6091537 128.65215922 642.59248352 129.85270691 C653.71268074 143.47911091 662.79550405 158.07429907 671.64717102 173.24723816 C672.01842102 173.87936218 672.38967102 174.51148621 672.77217102 175.1627655 C719.11995495 254.93617291 725.28878407 356.4153218 704.72871399 531.82194519 C694.47497831 570.43375005 679.39828504 608.20298099 656.64717102 641.24723816 C656.05041565 642.11566345 656.05041565 642.11566345 655.44160461 643.00163269 C647.90547837 653.91328485 639.69615961 664.11636446 630.75654602 673.91911316 C628.89041535 675.97876849 627.07647314 678.0711271 625.27217102 680.18473816 C617.46131513 689.1114306 608.92279433 696.87702107 599.64717102 704.24723816 C597.87570172 705.72564312 596.1048741 707.20481729 594.33467102 708.68473816 C581.86248361 718.8381527 568.54577424 727.19804708 554.64717102 735.24723816 C553.83473938 735.72338562 553.02230774 736.19953308 552.18525696 736.69010925 C538.82712097 744.48460046 525.03459864 750.60383778 510.64717102 756.24723816 C509.88388489 756.55000671 509.12059875 756.85277527 508.33418274 757.16471863 C464.97931771 774.29468509 418.59664606 782.74937521 372.33467102 786.93473816 C371.02659485 787.05421814 369.71851868 787.17369812 368.37080383 787.29679871 C345.55336143 789.23855912 322.71303946 789.39984211 299.83038116 789.38142467 C296.49992115 789.37954097 293.16946673 789.38133815 289.83900696 789.38310045 C278.91110565 789.38883173 267.9832256 789.38259004 257.05532742 789.37424803 C253.25697731 789.37156528 249.45862701 789.36973116 245.66027641 789.36791712 C217.67980062 789.35439314 189.69940692 789.31368495 161.71899319 789.25380993 C159.67131528 789.24942918 157.62363728 789.24508869 155.57595921 789.24078846 C129.74120339 789.18649483 103.90663402 789.11190059 78.07207853 788.99551392 C77.13867271 788.99130936 76.20526689 788.9871048 75.24357605 788.98277283 C74.31430005 788.9785733 73.38502405 788.97437378 72.42758816 788.970047 C65.89777734 788.94120863 59.36796735 788.9197445 52.83811951 788.90135193 C44.88815358 788.87877489 36.93831738 788.84560398 28.98845607 788.79873723 C24.93954963 788.77509323 20.89076478 788.75598185 16.84179115 788.74958992 C13.13214752 788.74355036 9.42283808 788.72362529 5.71331871 788.69295478 C3.7481914 788.68015777 1.78298636 788.68173909 -0.18218136 788.68396187 C-11.04029569 788.56923512 -20.98428606 787.29314565 -29.12626648 779.56364441 C-38.86458258 769.35279398 -38.92401954 758.20943007 -38.82279968 744.82902527 C-38.82328628 742.94123084 -38.82552761 741.0534362 -38.82936001 739.1656456 C-38.83475763 733.97107211 -38.81504739 728.77685052 -38.79122257 723.58234 C-38.76967333 717.93075984 -38.7712991 712.27917799 -38.7698822 706.62756348 C-38.76333986 695.42942162 -38.7349571 684.23143156 -38.69970167 673.03334743 C-38.67119459 663.77835658 -38.65181868 654.52338142 -38.63893127 645.26835632 C-38.63752957 644.27196667 -38.63752957 644.27196667 -38.63609954 643.25544794 C-38.63230878 640.5506178 -38.62855765 637.84578761 -38.62486271 635.14095733 C-38.58071301 602.97306617 -38.49416218 570.80533545 -38.39998598 538.63755809 C-38.36545943 526.83641582 -38.33321701 515.03526912 -38.30278015 503.2341156 C-38.30074198 502.44402193 -38.29870382 501.65392826 -38.29660389 500.83989235 C-38.28834693 497.63627065 -38.28010221 494.43264893 -38.27187108 491.22902716 C-38.06706679 411.55584009 -37.80367988 331.88295773 -37.46287726 245.46727746 C-37.38375537 225.46360732 -37.30972615 205.45992625 -37.23954773 185.45622253 C-37.16615096 164.56114645 -37.08616225 143.6661113 -36.99452114 122.77110672 C-36.98535793 120.6783117 -36.9762029 118.58551665 -36.96705627 116.49272156 C-36.96259076 115.47149539 -36.95812524 114.45026922 -36.95352441 113.3980968 C-36.92314807 106.34444442 -36.89753491 99.29078489 -36.87409973 92.23710632 C-36.84641331 83.92030347 -36.81219042 75.60356262 -36.76866639 67.28682685 C-36.74725397 63.16495345 -36.72880431 59.04313013 -36.71903992 54.92121124 C-36.71019238 51.21586349 -36.69234304 47.51067418 -36.66717994 43.80540228 C-36.65626792 41.86054984 -36.65493082 39.91565081 -36.65401554 37.97076797 C-36.55546212 26.19350472 -34.8491142 17.44817533 -26.91532898 8.49723816 C-18.26802621 0.9044845 -11.12791078 -0.04871453 0 0 Z M-4.35282898 32.24723816 C-4.69892053 87.52620917 -5.02477296 142.80529173 -5.33474028 198.08447701 C-5.35276528 201.29837958 -5.37082266 204.51228198 -5.38888073 207.72618437 C-5.99197515 315.1773534 -6.46024938 422.62709146 -6.479146 605.71627015 C-6.47782399 608.57050891 -6.47653894 611.42474768 -6.47525787 614.27898645 C-6.45377546 661.60175787 -6.41467471 708.92450205 -6.35282898 756.24723816 C70.75716725 756.85945668 147.86728389 757.46970154 224.98007393 757.53650093 C237.41502942 757.54743248 249.8497841 757.57285373 262.28467113 757.61598235 C271.41253427 757.64646959 280.54034454 757.66097417 289.66825742 757.66426247 C294.97407155 757.66654223 300.2796736 757.67454576 305.58542824 757.70072365 C343.08401005 757.8767805 380.70883066 756.14719356 417.64717102 749.24723816 C418.69018372 749.05516785 419.73319641 748.86309753 420.80781555 748.66520691 C428.11244244 747.30416448 435.38629541 745.82455361 442.64717102 744.24723816 C443.48844543 744.06612488 444.32971985 743.8850116 445.19648743 743.69841003 C467.9258128 738.70173822 490.50791462 730.95084549 511.64717102 721.24723816 C512.59866028 720.81717468 513.55014954 720.38711121 514.5304718 719.9440155 C534.17226841 711.01874836 552.75255338 700.74217084 569.64717102 687.24723816 C570.45541321 686.61817566 571.2636554 685.98911316 572.09638977 685.34098816 C585.99581265 674.4184143 599.29947487 662.85577798 610.64717102 649.24723816 C611.35728333 648.3998407 611.35728333 648.3998407 612.08174133 647.5353241 C619.13493661 639.091237 625.84551041 630.61664895 631.64717102 621.24723816 C632.32562073 620.15669128 632.32562073 620.15669128 633.01777649 619.04411316 C639.82814369 608.05178602 646.16917145 596.96230678 651.64717102 585.24723816 C651.96073547 584.58675476 652.27429993 583.92627136 652.59736633 583.24577332 C669.89471603 546.6093908 679.41311851 507.80124108 684.3429718 467.70915222 C684.62896563 465.39457619 684.93085037 463.08265573 685.23701477 460.77067566 C686.30790503 452.46984955 686.96271045 444.20393203 687.30586243 435.84025574 C687.33728333 435.09670837 687.36870422 434.35316101 687.40107727 433.58708191 C687.42500549 432.94118103 687.44893372 432.29528015 687.47358704 431.62980652 C687.61978081 429.62318901 687.87276975 427.62476803 688.14985657 425.63200378 C688.78457354 420.67274612 688.82704087 415.74551486 688.85029602 410.75114441 C688.85731033 409.74184372 688.86432465 408.73254303 688.87155151 407.69265747 C688.88913325 404.3983059 688.89541729 401.10413514 688.89717102 397.80973816 C688.89784576 396.67665222 688.89852051 395.54356628 688.8992157 394.37614441 C688.8118094 301.42159075 669.87989851 204.68846379 593.27217102 122.74723816 C561.18583059 91.33223704 519.86753381 70.28986821 477.64717102 56.24723816 C476.11769836 55.72951843 476.11769836 55.72951843 474.55732727 55.20133972 C439.28997259 43.36031427 402.25912286 37.43430314 365.26045358 34.45865798 C363.43159251 34.31069944 361.60298798 34.15955123 359.77458727 34.00600839 C340.38357159 32.40304812 321.15236006 31.96273093 301.70573747 32.01510692 C297.57873836 32.02392347 293.45174346 32.02080871 289.32473755 32.01930237 C282.21140195 32.01826475 275.09810367 32.02442191 267.98477745 32.03577805 C257.70070701 32.05218526 247.4166542 32.05725642 237.13257209 32.05975403 C220.43845362 32.06410757 203.74435495 32.07735235 187.05024719 32.09635925 C170.85461016 32.1147792 154.65897855 32.12890558 138.46333313 32.13737488 C137.46134761 32.13790032 136.45936208 32.13842577 135.42701336 32.13896714 C130.39924571 32.14157763 125.37147802 32.14410495 120.3437103 32.14659095 C78.77818346 32.16725037 37.21267838 32.20241116 -4.35282898 32.24723816 Z " fill="#C5FD00" transform="translate(116.35282897949219,1306.7527618408203)"/>
<path d="M0 0 C0.71859192 0.10654907 1.43718384 0.21309814 2.17755127 0.32287598 C61.53125977 9.2039371 120.06317244 29.78375547 167 68 C167.54011719 68.43715332 168.08023438 68.87430664 168.63671875 69.32470703 C182.69239777 80.78794875 196.00004501 93.55379317 207 108 C207.89096067 109.11665719 208.7829565 110.23248893 209.67578125 111.34765625 C255.61921222 169.62416721 272.26541055 243.99427154 272.1875 316.8125 C272.18659363 318.37661118 272.18659363 318.37661118 272.18566895 319.97232056 C272.16089018 335.73206753 271.88720928 351.33489642 270 367 C269.86577637 368.12277344 269.73155273 369.24554687 269.59326172 370.40234375 C261.91882057 432.47777916 239.95074734 492.84035435 197.26171875 539.515625 C195.80758885 541.11290758 194.37099172 542.72642639 192.95703125 544.359375 C183.07524345 555.70581803 171.90202346 565.88428621 159.73828125 574.73291016 C158.5376225 575.60810945 157.34263006 576.4911165 156.15234375 577.38037109 C139.14392683 590.08084807 120.5257993 600.66803412 101 609 C100.18225098 609.34981934 99.36450195 609.69963867 98.52197266 610.06005859 C75.25646552 619.87039788 50.77754674 627.16474987 26 632 C24.91992676 632.21108398 23.83985352 632.42216797 22.72705078 632.63964844 C-8.6411874 638.64605086 -40.21756512 641.2307592 -72.125 641.25 C-73.65219162 641.25101212 -73.65219162 641.25101212 -75.2102356 641.25204468 C-145.50698171 641.17888656 -219.04551049 628.92074789 -280 592 C-280.68690918 591.59185059 -281.37381836 591.18370117 -282.08154297 590.76318359 C-291.57171969 585.11316665 -300.40220709 578.92507056 -309 572 C-309.92167969 571.27167969 -310.84335938 570.54335937 -311.79296875 569.79296875 C-326.78751631 557.78434841 -341.40251294 544.34898472 -353 529 C-353.92245218 527.81714266 -354.84568695 526.63489538 -355.76953125 525.453125 C-393.04113374 477.32883747 -412.30646119 417.24959826 -417 357 C-417.08757568 355.89382324 -417.17515137 354.78764648 -417.26538086 353.64794922 C-418.08484533 342.14035803 -418.20050574 330.65868699 -418.1875 319.125 C-418.18689575 318.13177734 -418.1862915 317.13855469 -418.18566895 316.11523438 C-418.160193 300.65568401 -417.80160282 285.37045304 -416 270 C-415.79866455 268.25493164 -415.79866455 268.25493164 -415.59326172 266.47460938 C-413.68186296 250.39599919 -411.01731415 234.68292256 -407 219 C-406.65509521 217.58799316 -406.65509521 217.58799316 -406.30322266 216.14746094 C-399.86005763 189.91239359 -389.52476492 164.39211421 -376 141 C-375.58685547 140.28505371 -375.17371094 139.57010742 -374.74804688 138.83349609 C-365.46931633 123.00009971 -354.17221336 108.69222406 -342 95 C-341.51611816 94.4529541 -341.03223633 93.9059082 -340.53369141 93.34228516 C-335.62067043 87.80790667 -330.67418309 82.43636706 -324.984375 77.6796875 C-323.60769459 76.51438716 -322.2655172 75.30756774 -320.953125 74.0703125 C-308.97975363 62.79882842 -295.22664682 53.19899548 -281 45 C-279.81899112 44.30211598 -278.63800238 43.60419789 -277.45703125 42.90625 C-235.6191649 18.48227559 -187.94523682 4.78635076 -140 -1 C-138.97922363 -1.13535156 -137.95844727 -1.27070312 -136.90673828 -1.41015625 C-92.43917901 -7.12879385 -44.31321072 -6.66619891 0 0 Z M-134.875 30.25 C-135.67935486 30.35232941 -136.48370972 30.45465881 -137.31243896 30.56008911 C-198.43542202 38.61429814 -258.91372221 59.77311703 -304.37890625 102.58984375 C-307 105 -307 105 -309.63671875 107.08984375 C-311.78008304 108.82224893 -313.48025402 110.52454391 -315.25 112.625 C-317.1257691 114.83084006 -319.0037391 117.00395905 -320.9921875 119.109375 C-365.88344823 166.79606222 -385.93682356 238.24615974 -386.203125 302.4296875 C-386.21013931 303.57091568 -386.21715363 304.71214386 -386.22438049 305.88795471 C-386.24177891 309.5503438 -386.24823255 313.21257111 -386.25 316.875 C-386.25067474 318.12677032 -386.25134949 319.37854065 -386.25204468 320.66824341 C-386.22824789 348.45198971 -384.22712029 374.84654843 -378 402 C-377.78504883 402.98484375 -377.57009766 403.9696875 -377.34863281 404.984375 C-365.37150083 459.69605712 -335.035266 512.75088642 -289.80761719 546.64111328 C-288.0078767 547.99407864 -286.22628451 549.36855445 -284.4453125 550.74609375 C-270.13508317 561.67735748 -254.31428144 570.4283 -238 578 C-236.96649414 578.48049805 -236.96649414 578.48049805 -235.91210938 578.97070312 C-207.56679272 591.94403732 -175.89741338 600.77975818 -144.94384766 604.62890625 C-142.75143542 604.90527601 -140.56130377 605.19985658 -138.37255859 605.50390625 C-48.73577167 617.90780717 58.78474599 608.82836792 134 554 C134.5583252 553.59571777 135.11665039 553.19143555 135.69189453 552.77490234 C142.97056819 547.45967987 149.71307437 541.69729242 156.28125 535.53125 C158.57912963 533.39184482 160.91658807 531.3398101 163.3125 529.3125 C167.28190081 525.85554233 170.61893401 522.02380329 174 518 C174.84691406 517.02933594 175.69382812 516.05867188 176.56640625 515.05859375 C182.95198725 507.71033974 188.66172091 500.15625541 194 492 C194.63164063 491.04351563 195.26328125 490.08703125 195.9140625 489.1015625 C206.54023462 472.44077411 215.37628259 454.61079649 222 436 C222.50225098 434.58992676 222.50225098 434.58992676 223.01464844 433.15136719 C234.23872706 401.08106555 239.93246847 367.45165861 240.2734375 333.484375 C240.29222961 331.74688995 240.29222961 331.74688995 240.31140137 329.9743042 C240.78436491 275.64420324 235.42470922 223.4156956 211 174 C210.63938477 173.2663623 210.27876953 172.53272461 209.90722656 171.77685547 C195.54652921 142.88127442 175.08942042 115.30059345 149.71875 95.16796875 C147.96193503 93.76706026 146.23024767 92.33377448 144.53125 90.86328125 C103.29047548 55.41403525 46.78486388 38.98165003 -6.0625 31.8125 C-7.19469971 31.65773193 -8.32689941 31.50296387 -9.4934082 31.34350586 C-13.32448532 30.84912997 -17.15889412 30.40737562 -21 30 C-21.81944092 29.9123941 -22.63888184 29.82478821 -23.4831543 29.73452759 C-41.26295117 27.89691113 -59.01714671 27.56109851 -76.875 27.5625 C-77.9513055 27.56113289 -77.9513055 27.56113289 -79.04935455 27.55973816 C-97.75253932 27.53853915 -116.29188324 27.88392292 -134.875 30.25 Z " fill="#C5FE00" transform="translate(1759,1472)"/>
<path d="M0 0 C5.07680553 4.68628203 8.36399611 11.03620025 9.6875 17.8125 C9.78283198 20.26099108 9.82671548 22.68067486 9.82121277 25.12892151 C9.82347833 25.86778451 9.82574388 26.60664752 9.82807809 27.36790031 C9.83441057 29.8449735 9.83358919 32.32199187 9.83276367 34.79907227 C9.83575576 36.57489594 9.8391584 38.35071897 9.84294128 40.12654114 C9.85178356 44.95333868 9.85411958 49.78011849 9.85475707 54.60692334 C9.8554678 57.62488759 9.85760263 60.64284734 9.86025429 63.66081047 C9.86951064 74.1968095 9.87358908 84.73279587 9.87280273 95.26879883 C9.87220286 105.0764173 9.88273622 114.8839806 9.8985464 124.69158512 C9.91164673 133.11979606 9.91698554 141.54798903 9.91634732 149.97621006 C9.91609294 155.0061839 9.91891102 160.03610879 9.92952538 165.06607246 C9.93924754 169.80288769 9.93925741 174.53960762 9.93200874 179.27642632 C9.93096779 181.0085349 9.93329651 182.74064955 9.9393692 184.4727478 C9.98744684 199.14446323 9.79177547 212.19239093 -0.5 223.625 C-7.77484446 230.47097809 -17.45334283 231.96234913 -27.09863281 231.89428711 C-27.75024887 231.89122055 -28.40186493 231.88815399 -29.07322693 231.88499451 C-30.48252865 231.87787206 -31.89182045 231.8684994 -33.30109406 231.85709953 C-35.56025354 231.839496 -37.81933994 231.82933756 -40.07855225 231.82118225 C-46.50116912 231.79695893 -52.9236907 231.76213506 -59.34619141 231.71655273 C-111.34027367 229.88312555 -111.34027367 229.88312555 -157.36328125 250.8515625 C-170.77655038 264.34547252 -175.8416888 281.65862572 -179 299.875 C-179.11947998 300.55771973 -179.23895996 301.24043945 -179.36206055 301.94384766 C-181.65162785 316.14546495 -181.47301072 330.513631 -181.50195312 344.85205078 C-181.50991149 347.05183566 -181.51830066 349.25161902 -181.52708435 351.45140076 C-181.54505209 356.16834182 -181.56010047 360.88527971 -181.57286072 365.6022377 C-181.59326108 373.09876873 -181.62089608 380.59526291 -181.64953613 388.09176636 C-181.68915421 398.63799221 -181.72610103 409.18422402 -181.76025391 419.73046875 C-181.76241671 420.39795934 -181.76457951 421.06544992 -181.76680785 421.7531675 C-181.77992446 425.80652464 -181.79296351 429.85988204 -181.80598927 433.91323948 C-181.86331855 451.73755882 -181.92232389 469.56186859 -181.99004889 487.38615215 C-182.01343961 493.59885142 -182.03503143 499.81154529 -182.05213928 506.02426529 C-182.09190814 520.31947788 -182.15428604 534.61410182 -182.28593063 548.90879536 C-182.30346819 550.82543466 -182.32002139 552.74208325 -182.33552933 554.65874004 C-182.37854555 559.8568474 -182.44120419 565.05384697 -182.53975773 570.25121284 C-182.56609212 571.76556374 -182.58623007 573.28003858 -182.59934902 574.79456162 C-182.67686791 582.97914795 -183.09356174 589.6716539 -187.3125 596.8125 C-187.78171875 597.62203125 -188.2509375 598.4315625 -188.734375 599.265625 C-193.64856771 605.91423867 -199.34805618 609.59869821 -207.3125 611.8125 C-210.30603626 612.09281934 -213.28261104 612.08264876 -216.28755188 612.06646729 C-217.1806263 612.06958727 -218.07370073 612.07270725 -218.99383801 612.07592177 C-221.98074142 612.08388692 -224.96744084 612.0775838 -227.9543457 612.07128906 C-230.09823729 612.07399964 -232.24212795 612.07756094 -234.38601685 612.08190918 C-240.20635137 612.09102915 -246.026615 612.08749007 -251.84695077 612.08115101 C-257.94062761 612.07608706 -264.03429839 612.08078375 -270.12797546 612.08392334 C-280.36454355 612.08756265 -290.60108278 612.08276565 -300.83764648 612.07324219 C-312.66415133 612.06236644 -324.49058717 612.06587698 -336.31709033 612.076895 C-346.47523568 612.08597925 -356.63336028 612.08724731 -366.79150838 612.08201766 C-372.8564884 612.07890311 -378.92143603 612.07847433 -384.98641396 612.08509064 C-390.69176705 612.09087968 -396.39703148 612.08683861 -402.10237503 612.07530212 C-404.1933102 612.07266351 -406.28425286 612.07340696 -408.37518501 612.07782745 C-411.23572224 612.08331609 -414.09597776 612.0764085 -416.95649719 612.06646729 C-418.18921127 612.07315945 -418.18921127 612.07315945 -419.44682866 612.07998681 C-429.72148397 612.0110271 -439.22520806 609.76914262 -447 602.75 C-456.26151142 592.87388027 -456.47307774 580.74795819 -456.40151978 567.99743652 C-456.39899781 566.81924304 -456.39647584 565.64104955 -456.39387745 564.42715323 C-456.38585682 561.16491944 -456.3732517 557.90274092 -456.35868879 554.64053097 C-456.34400587 551.09902792 -456.33526891 547.55750938 -456.32577419 544.0159893 C-456.30838028 537.83475571 -456.28717879 531.65354437 -456.2634449 525.472332 C-456.22845836 516.35915771 -456.1992978 507.24597144 -456.17132206 498.13277327 C-456.11888241 481.12157828 -456.0595606 464.11041168 -455.99793297 447.09924781 C-455.95078325 434.07803137 -455.90530618 421.05681011 -455.86105347 408.0355835 C-455.85472196 406.17492616 -455.84838966 404.31426882 -455.84205657 402.45361149 C-455.83254464 399.65865384 -455.82303323 396.86369619 -455.81352555 394.06873853 C-455.72733266 368.74258322 -455.63935405 343.41643486 -455.54692078 318.09030151 C-455.54353258 317.16142245 -455.54014439 316.23254338 -455.53665353 315.27551647 C-455.52302721 311.53993479 -455.50939577 307.80435314 -455.49576404 304.06877149 C-455.48561683 301.28770965 -455.47547331 298.5066478 -455.46533203 295.72558594 C-455.46199894 294.81171742 -455.45866584 293.89784891 -455.45523174 292.95628741 C-455.35199475 264.62737087 -455.25881892 236.29843909 -455.17472591 207.96945958 C-455.16378525 204.2839813 -455.15282607 200.59850307 -455.1418457 196.9130249 C-455.13970651 196.19465117 -455.13756732 195.47627743 -455.13536331 194.7361348 C-455.08045381 176.34133611 -455.01776093 157.9465648 -454.95258713 139.55179977 C-454.90839548 127.0321823 -454.86723555 114.51257184 -454.83404541 101.99291992 C-454.80621702 91.50717622 -454.7718298 81.02148121 -454.72843772 70.53578985 C-454.70688888 65.28244039 -454.68842853 60.02913116 -454.67869377 54.77574539 C-454.66984805 50.03146202 -454.65200312 45.28730258 -454.62684703 40.54307842 C-454.61940257 38.83974054 -454.61526763 37.13638422 -454.61482167 35.43303013 C-454.60853686 22.06466876 -454.28191039 9.79689048 -444.234375 -0.26953125 C-434.37869691 -8.45387931 -424.28002055 -8.62027879 -412.03100586 -8.54394531 C-410.39063406 -8.5447373 -408.75026246 -8.54683796 -407.1098938 -8.55014038 C-402.67345309 -8.55525426 -398.23724622 -8.54177517 -393.800843 -8.52461338 C-389.13852077 -8.50950369 -384.47620065 -8.5107495 -379.81385803 -8.50994873 C-371.97848562 -8.50626082 -364.14320104 -8.49132454 -356.30786133 -8.46875 C-346.29352422 -8.43995373 -336.27925803 -8.4295312 -326.264884 -8.4250679 C-317.61090153 -8.42106488 -308.95693408 -8.40856231 -300.30296254 -8.39472103 C-297.54437688 -8.39065014 -294.78579174 -8.38771019 -292.02720451 -8.38492584 C-287.66459123 -8.37997393 -283.30201912 -8.36967433 -278.93942642 -8.35548782 C-277.35132406 -8.35102556 -275.76321623 -8.34814089 -274.17510796 -8.34708023 C-238.41030979 -8.31787389 -238.41030979 -8.31787389 -227.1015625 1.8359375 C-222.66618872 6.73615395 -220.55258243 11.38518415 -219.0625 17.6875 C-218.88976563 18.37585937 -218.71703125 19.06421875 -218.5390625 19.7734375 C-218.11978358 21.45055318 -217.71464456 23.13119349 -217.3125 24.8125 C-216.64214722 24.28462891 -216.64214722 24.28462891 -215.95825195 23.74609375 C-162.76998251 -17.97126388 -59.62495234 -47.02041279 0 0 Z M-126.3125 14.8125 C-127.59616455 15.08537842 -127.59616455 15.08537842 -128.90576172 15.36376953 C-157.42617405 21.60557305 -182.40428776 35.65100963 -203.3125 55.8125 C-204.48039062 56.88564453 -204.48039062 56.88564453 -205.671875 57.98046875 C-219.20308499 70.76794202 -229.27637488 87.68106492 -236.3125 104.8125 C-236.6425 104.8125 -236.9725 104.8125 -237.3125 104.8125 C-237.41796143 104.12438232 -237.52342285 103.43626465 -237.63208008 102.72729492 C-238.85455207 94.75502639 -240.08227181 86.78357507 -241.3125 78.8125 C-241.44027832 77.98218262 -241.56805664 77.15186523 -241.69970703 76.29638672 C-244.40184936 58.7737607 -247.39763024 41.30171856 -250.3125 23.8125 C-307.0725 23.8125 -363.8325 23.8125 -422.3125 23.8125 C-422.91491993 75.01819443 -423.48409634 126.20332323 -423.60342598 177.40940285 C-423.62707292 187.15654793 -423.65514135 196.90367775 -423.68374526 206.65080937 C-423.73064947 222.68020311 -423.77401608 238.70960427 -423.81518555 254.73901367 C-423.85417781 269.91936055 -423.89572113 285.09969745 -423.94018555 300.2800293 C-424.22265483 395.7499667 -424.22265483 395.7499667 -424.33935547 491.22021484 C-424.33959785 491.94125878 -424.33984022 492.66230271 -424.34008995 493.40519646 C-424.34936767 522.20763779 -424.32732806 551.01006016 -424.3125 579.8125 C-355.0125 579.8125 -285.7125 579.8125 -214.3125 579.8125 C-214.26351563 561.69472656 -214.21453125 543.57695313 -214.1640625 524.91015625 C-214.12865936 513.4029903 -214.09278018 501.89582877 -214.0546875 490.38867188 C-214.03468411 484.33846076 -214.01480042 478.28824927 -213.99511719 472.23803711 C-213.99264575 471.47990241 -213.99017431 470.72176771 -213.98762798 469.94065922 C-213.9480751 457.7540982 -213.9152599 445.5675281 -213.88500018 433.38094086 C-213.85371631 420.84330561 -213.8150369 408.30570834 -213.76970994 395.76811594 C-213.74204212 388.05243822 -213.71991695 380.33678779 -213.70523749 372.62107425 C-213.69329505 366.67153343 -213.67098689 360.72205744 -213.64511681 354.77256012 C-213.63615771 352.35617249 -213.63037868 349.93977027 -213.62828636 347.52336693 C-213.60752987 327.16593116 -213.31568055 306.4650575 -208.9375 286.5 C-208.7415625 285.52095703 -208.545625 284.54191406 -208.34375 283.53320312 C-206.27578783 273.61876423 -203.29181618 263.97839771 -198.6875 254.9375 C-198.34759033 254.26895996 -198.00768066 253.60041992 -197.6574707 252.91162109 C-185.77838771 230.23507546 -166.3821928 214.58683712 -141.95376587 206.59977722 C-116.80634746 199.10413283 -90.44158647 200.04006087 -64.5 200 C-43.6171875 199.9071875 -43.6171875 199.9071875 -22.3125 199.8125 C-22.3125 141.7325 -22.3125 83.6525 -22.3125 23.8125 C-28.53971485 20.59919589 -28.53971485 20.59919589 -34.87109375 18.21484375 C-35.65887207 17.9720166 -36.44665039 17.72918945 -37.25830078 17.47900391 C-41.59768537 16.20941716 -45.94495248 14.9816905 -50.3125 13.8125 C-50.9832959 13.6273584 -51.6540918 13.4422168 -52.34521484 13.25146484 C-75.55418365 7.12067851 -103.21728582 9.77090795 -126.3125 14.8125 Z " fill="#C5FE00" transform="translate(1336.3125,1486.1875)"/>
<path d="M0 0 C11.14561328 -0.04668597 22.29120265 -0.08205108 33.43689442 -0.10362434 C38.61429655 -0.11398715 43.79163096 -0.12800623 48.96899414 -0.15087891 C53.98110796 -0.17287871 58.99315734 -0.18462475 64.00531578 -0.18975449 C65.90151672 -0.19340223 67.79771481 -0.20052236 69.69388771 -0.21146011 C101.27784369 -0.38612094 132.03047838 3.55209369 160 19 C161.39992188 19.75603516 161.39992188 19.75603516 162.828125 20.52734375 C190.05620723 35.98227722 206.64168012 63.30943901 214.8125 92.79052734 C219.38640944 109.66872964 222.1279277 125.67585232 222.17700195 143.19921875 C222.18357315 144.24839478 222.19014435 145.2975708 222.19691467 146.37854004 C222.21644993 149.81486108 222.2282715 153.25113865 222.23828125 156.6875 C222.24235678 157.87719391 222.2464323 159.06688782 222.25063133 160.29263306 C222.27141742 166.60133687 222.28574605 172.91001947 222.29516602 179.21875 C222.30615971 185.65036115 222.34049966 192.08161962 222.38033772 198.5131073 C222.40682098 203.53084843 222.41488597 208.54850988 222.41844749 213.5663147 C222.42323931 215.9323665 222.43463313 218.29841664 222.45348549 220.66439819 C222.67468635 250.28743859 219.1893102 281.0512365 206 308 C205.43925781 309.17175781 204.87851562 310.34351563 204.30078125 311.55078125 C191.17020139 338.05434118 167.9717525 358.28072204 140 368 C122.2773 373.61793831 104.48896297 377.190788 85.84692383 377.11352539 C84.42536987 377.11374443 84.42536987 377.11374443 82.97509766 377.1139679 C79.88571776 377.11327893 76.79640043 377.1055348 73.70703125 377.09765625 C71.54798923 377.09578845 69.38894678 377.09436626 67.22990417 377.09336853 C61.5796489 377.08957184 55.92941982 377.07976621 50.2791748 377.06866455 C44.50057326 377.05838886 38.72196744 377.05385778 32.94335938 377.04882812 C21.62889482 377.03814109 10.3144496 377.02109932 -1 377 C-1.03177781 349.60417276 -1.05135565 322.20834324 -1.0625 294.8125 C-1.0629343 293.77625803 -1.06336861 292.74001606 -1.06381607 291.67237282 C-1.09219498 222.03015159 -0.89732668 152.39107784 -0.5 82.75 C-0.49402628 81.70072342 -0.48805257 80.65144685 -0.48189783 79.57037401 C-0.33071049 53.04685683 -0.17070631 26.52339875 0 0 Z M32 32 C31.08341823 48.76394821 30.85775793 65.48489053 30.88393438 82.2715193 C30.88833363 85.826022 30.88678588 89.38052341 30.8860321 92.93502808 C30.88551275 99.06462484 30.88859722 105.19421081 30.89426994 111.32380486 C30.90246589 120.18570265 30.90500837 129.04759532 30.90625793 137.90949649 C30.90843587 152.29424084 30.91506152 166.67897946 30.92456055 181.0637207 C30.93376744 195.02075167 30.94083216 208.97778106 30.94506836 222.93481445 C30.94533108 223.79798753 30.94559381 224.6611606 30.94586449 225.55049043 C30.94716972 229.88163056 30.94843338 234.21277071 30.94967639 238.54391086 C30.96000976 274.36261132 30.97759344 310.18130513 31 346 C37.40283721 346.01926353 43.80566676 346.03225361 50.20852661 346.04119873 C52.37963134 346.04493402 54.55073423 346.05002406 56.72183228 346.05657959 C94.58214259 346.16790455 132.60803415 345.2024409 161.8125 317.5625 C193.48043222 283.90576044 191.3754355 232.30202606 191.31567383 189.35717773 C191.31102903 185.74214277 191.31803303 182.1274432 191.33618164 178.51245117 C191.5455279 136.41462817 191.16223597 90.02311378 159.8828125 57.8203125 C148.06395998 46.69413998 133.76623285 40.32570112 118.25 36.3125 C117.0906897 36.00856323 117.0906897 36.00856323 115.90795898 35.69848633 C98.43784875 31.42500391 80.9528608 31.74576023 63.08764648 31.8626709 C59.57408072 31.88342111 56.06048485 31.89232589 52.546875 31.90234375 C45.69784206 31.92355882 38.84893691 31.9583629 32 32 Z " fill="#C5FE00" transform="translate(344,1513)"/>
<path d="M0 0 C21.7537979 19.04217301 30.2831277 49.21428314 32.4296875 77.109375 C32.55714846 80.28580931 32.57670913 83.45675907 32.57495117 86.63549805 C32.57830978 87.52969955 32.5816684 88.42390106 32.58512878 89.34519958 C32.59454523 92.27051219 32.59657728 95.19576698 32.59765625 98.12109375 C32.60087564 100.17837039 32.60424021 102.2356468 32.60774231 104.29292297 C32.6137106 108.59559662 32.61558462 112.89825025 32.61499023 117.20092773 C32.61488883 122.67643608 32.62852942 128.15181413 32.64576244 133.62729168 C32.65695845 137.87503126 32.65890711 142.12274012 32.65838051 146.37049294 C32.65954965 148.38721985 32.66391044 150.40394785 32.67171288 152.42066002 C32.71177567 163.84618365 32.31403368 174.82650082 30.4296875 186.109375 C30.31539902 186.88998795 30.20111053 187.67060089 30.08335876 188.47486877 C27.1081118 208.71139192 19.42468119 229.89855006 5.4296875 245.109375 C4.68074219 245.94984375 3.93179687 246.7903125 3.16015625 247.65625 C-12.28753466 264.12713207 -36.28073572 272.73891221 -58.67451477 273.56411743 C-61.86089158 273.61974903 -65.04319318 273.61774929 -68.22973633 273.57592773 C-70.63627956 273.54683308 -73.04061877 273.55541647 -75.44726562 273.56835938 C-101.52606811 273.53187091 -127.0821143 267.53938292 -146.02734375 248.71875 C-147.28611328 247.42710937 -147.28611328 247.42710937 -148.5703125 246.109375 C-149.23417969 245.45453125 -149.89804688 244.7996875 -150.58203125 244.125 C-159.69657674 234.53936565 -164.50217596 222.45569636 -168.5703125 210.109375 C-169.06724609 208.98789063 -169.06724609 208.98789063 -169.57421875 207.84375 C-171.10487417 203.6419508 -171.81933052 199.31096598 -172.6328125 194.921875 C-172.80619141 194.02662109 -172.97957031 193.13136719 -173.15820312 192.20898438 C-174.88642546 183.03814936 -175.71646188 173.97958255 -175.74731445 164.65014648 C-175.75388565 163.76225433 -175.76045685 162.87436218 -175.76722717 161.95956421 C-175.78677023 159.04986447 -175.79858691 156.14021615 -175.80859375 153.23046875 C-175.81470704 151.71889033 -175.81470704 151.71889033 -175.82094383 150.17677498 C-175.84173511 144.83114968 -175.85606048 139.48554943 -175.86547852 134.13989258 C-175.87429016 129.77125903 -175.89505917 125.40294854 -175.92700195 121.03442383 C-176.26101958 74.34837539 -176.26101958 74.34837539 -171.5703125 54.109375 C-171.3758403 53.22096924 -171.1813681 52.33256348 -170.98100281 51.41723633 C-165.54390798 26.5932317 -152.97571233 4.90755359 -131.3203125 -9.140625 C-119.65999408 -15.96315174 -107.88836754 -19.84508947 -94.5703125 -21.890625 C-93.39082031 -22.07496094 -92.21132812 -22.25929688 -90.99609375 -22.44921875 C-58.84362574 -26.29576266 -25.36618394 -21.06168286 0 0 Z M-125.5703125 27.109375 C-132.45421303 36.2600953 -137.0716428 46.21057312 -139.7578125 57.296875 C-139.9127417 57.93061035 -140.0676709 58.5643457 -140.22729492 59.21728516 C-143.47542504 73.68446024 -143.88346075 88.1239597 -143.87109375 102.875 C-143.8749952 104.84446297 -143.87933276 106.81392512 -143.88407898 108.78338623 C-143.89148641 112.88800803 -143.8912904 116.99254373 -143.88598633 121.09716797 C-143.8802035 126.29857147 -143.89712125 131.4996175 -143.920331 136.70096207 C-143.93522545 140.76275616 -143.93591888 144.8244673 -143.93282127 148.88628387 C-143.93332678 150.80119279 -143.93841539 152.71610735 -143.94863319 154.63098907 C-144.06856718 180.24584618 -141.51984194 207.32737272 -123.3203125 226.921875 C-106.8934837 242.4084476 -83.8861462 242.75837036 -62.60449219 242.25 C-47.14857615 241.5336653 -30.62141712 237.00140924 -19.34765625 225.92578125 C-11.70456135 216.95729417 -6.97956956 206.4637357 -3.7578125 195.234375 C-3.56292236 194.56470703 -3.36803223 193.89503906 -3.16723633 193.20507812 C0.66714964 178.75304251 0.74274076 163.92470861 0.73046875 149.08984375 C0.73436968 147.09556491 0.73870714 145.10128689 0.74345398 143.10700989 C0.75086172 138.95111382 0.75066489 134.79530278 0.74536133 130.6394043 C0.73957448 125.36840206 0.75650581 120.09775211 0.779706 114.82680798 C0.79458595 110.71444231 0.79529586 106.60215872 0.79219627 102.48977089 C0.79270237 100.54891577 0.79780267 98.60805515 0.80800819 96.66722679 C0.92118489 72.14116318 -1.3741282 44.92590668 -19.2265625 26.359375 C-36.3022952 9.96667161 -57.08846045 8.2992695 -79.75 8.76171875 C-96.87000631 9.4223663 -113.7492505 13.94449285 -125.5703125 27.109375 Z " fill="#C5FE00" transform="translate(1757.5703125,1664.890625)"/>
<path d="M0 0 C1.33276275 1.14346439 2.6464255 2.30966643 3.9375 3.5 C4.59621094 4.06847656 5.25492188 4.63695312 5.93359375 5.22265625 C27.10584137 24.66150348 32.93986698 55.7632318 34.18270874 83.20748901 C34.5602468 93.71547077 34.55470843 104.22986082 34.51391602 114.74316406 C34.50018819 118.40759996 34.50707665 122.07099273 34.53442383 125.73535156 C35.12513533 205.13968012 35.12513533 205.13968012 8.1484375 233.44921875 C-13.90670691 253.90672903 -39.67196191 256.46930421 -68.26855469 255.67041016 C-87.03787835 254.82736074 -103.32528281 247.19826799 -117.0625 234.5 C-117.71605469 233.91476562 -118.36960937 233.32953125 -119.04296875 232.7265625 C-131.75394344 220.77319558 -139.29568518 203.99208346 -144.0625 187.5 C-144.34738281 186.55253906 -144.63226562 185.60507813 -144.92578125 184.62890625 C-150.48046882 164.54657426 -150.51280698 144.0504517 -150.3850708 123.39556885 C-150.37161055 120.44434724 -150.37682287 117.49327894 -150.38219929 114.54204082 C-150.38558096 111.64277165 -150.37883312 108.74359148 -150.36907005 105.84433937 C-150.36350397 103.84184632 -150.36463398 101.83933806 -150.36604309 99.83683777 C-150.10661901 65.75196761 -141.28267707 30.4344508 -116.52001953 5.87988281 C-86.90275808 -22.15977577 -32.76982908 -24.56331957 0 0 Z M-96.2890625 30.63671875 C-100.81049757 35.48837099 -104.22580708 40.51785847 -107.0625 46.5 C-107.48273437 47.38171875 -107.90296875 48.2634375 -108.3359375 49.171875 C-111.96048195 57.29964135 -114.46186412 65.75150584 -116.0625 74.5 C-116.24272705 75.48315186 -116.4229541 76.46630371 -116.60864258 77.47924805 C-118.64088164 90.76264391 -118.40206 104.1749556 -118.37817383 117.57983398 C-118.37354238 120.39640267 -118.38047424 123.21253959 -118.39868164 126.02905273 C-118.58732013 155.48555407 -117.60669193 188.58786921 -95.734375 211.08984375 C-82.53617535 222.99523729 -67.56529836 225.22706437 -50.33203125 224.63623047 C-34.84118188 223.70637957 -22.88410418 218.84674268 -12.0625 207.5 C6.29068804 186.73720303 2.42343102 150.09296661 2.32861328 124.47753906 C2.31149953 119.80762369 2.32141369 115.13822516 2.33933067 110.46832848 C2.35030482 106.80284917 2.34666112 103.13748728 2.3389473 99.47200394 C2.33698398 97.75247761 2.33926359 96.03293966 2.34638596 94.31342697 C2.41711702 72.4623456 0.97080997 45.81312908 -14.9375 29.125 C-36.28800968 9.4969517 -75.58914831 10.77206426 -96.2890625 30.63671875 Z " fill="#C5FE00" transform="translate(2460.0625,1672.5)"/>
<path d="M0 0 C1.92102539 -0.01836914 1.92102539 -0.01836914 3.88085938 -0.03710938 C28.54081746 -0.07479652 52.52547709 6.82558011 70.84375 23.8828125 C87.43474896 41.11642058 96.29375493 64.10508763 96.109375 88.08984375 C96.10260742 89.23831787 96.09583984 90.38679199 96.08886719 91.57006836 C96.07581543 92.86569702 96.07581543 92.86569702 96.0625 94.1875 C80.4583428 94.21876944 64.85418446 94.23870675 49.25 94.25 C48.07575722 94.25085602 46.90151443 94.25171204 45.69168854 94.25259399 C8.4375597 94.27652245 -28.81059905 94.09524687 -66.0625 93.6875 C-67.70212896 93.66956327 -67.70212896 93.66956327 -69.37488174 93.65126419 C-82.56253731 93.5061502 -95.75007115 93.35190838 -108.9375 93.1875 C-108.79248594 91.77893585 -108.64411354 90.37071727 -108.49438477 88.96264648 C-108.4121315 88.17840805 -108.32987823 87.39416962 -108.24513245 86.58616638 C-104.97254793 61.06922708 -91.85912286 36.70136078 -72.3125 20.0625 C-51.12759648 3.87958759 -26.02389895 0.01305765 0 0 Z M-54.67578125 46.96484375 C-59.15037261 51.36215374 -63.92805276 56.15915827 -65.9375 62.1875 C-25.0175 62.1875 15.9025 62.1875 58.0625 62.1875 C52.95794859 49.42612148 44.44304426 41.85100996 32.0625 36.375 C6.41509649 26.44802275 -33.29611636 28.62427172 -54.67578125 46.96484375 Z " fill="#C5FD00" transform="translate(3099.9375,1637.8125)"/>
</svg>
